<svg width="254" height="254" viewBox="0 0 254 254" fill="none" xmlns="http://www.w3.org/2000/svg">
<path d="M84.1253 175.495C85.7557 172.626 97.6306 151.356 122.191 152.184C146.751 153.011 163.764 167.883 177.925 160.761C189.255 155.064 201.237 136.216 203.809 131.099C204.107 133.411 204.705 138.702 205.115 144.73C191.162 155.969 169.665 172.822 157.723 180.546C145.378 188.53 123.021 197.874 109.285 203.131C106.022 201.6 102.943 199.895 99.999 198.097C93.2038 193.947 92.7602 182.692 84.1253 175.495Z" fill="#838487"/>
<path d="M85.931 182.893C87.5011 180.702 98.9259 164.459 123.071 165.377C141.392 166.074 155.536 172.947 167.337 173.898C163.762 176.481 160.487 178.758 157.723 180.545C145.116 188.699 122.069 198.272 108.424 203.462C106.129 202.522 103.923 201.52 101.789 200.481C95.0635 197.208 90.0336 190.168 85.931 182.893Z" fill="#E8EBF0"/>
<path d="M169.116 86.9481C190.792 96.1709 206.797 116.442 209.739 140.987C208.311 142.149 206.746 143.416 205.074 144.763C203.478 121.616 189.396 102.151 169.717 92.7087L80.8558 157.965C83.5685 177.047 94.836 193.211 110.515 202.659C108.367 203.488 106.404 204.227 104.689 204.858C88.6704 193.914 77.5389 176.217 75.5462 155.662L169.116 86.9481Z" fill="#E8EBF0"/>
<path d="M194.523 111.945C212.057 106.242 224.825 105.619 228.409 111.443C235.282 122.611 205.775 153.254 162.502 179.883L160.475 181.121C117.966 206.897 78.4703 218.869 71.7037 207.875C68.207 202.192 74.1297 191.469 86.4908 178.798C87.1963 180.542 88.3374 181.745 89.8416 182.522C89.712 182.656 89.5822 182.788 89.4542 182.921C83.6481 188.95 79.628 194.252 77.471 198.485C75.1606 203.019 75.7009 204.829 75.9617 205.254C76.2224 205.678 77.5945 206.977 82.6861 206.958C87.4369 206.94 93.9802 205.74 101.978 203.275C117.902 198.366 138.496 188.784 159.881 175.625C181.265 162.465 199.1 148.399 210.659 136.397C216.465 130.368 220.485 125.066 222.642 120.833C224.953 116.298 224.412 114.488 224.151 114.064C223.89 113.64 222.518 112.341 217.427 112.36C212.676 112.378 206.133 113.577 198.134 116.043C197.482 116.244 196.823 116.454 196.155 116.67C195.863 114.902 195.308 113.334 194.523 111.945Z" fill="#E8EBF0"/>
<path d="M70.9493 105.835C71.1942 105.561 71.4686 105.314 71.7677 105.099L119.626 70.7784C119.925 70.5639 120.247 70.3831 120.585 70.2393L183.692 43.4413C189.187 41.1081 193.411 48.628 188.56 52.1067L31.9717 164.403C27.121 167.882 21.3535 161.468 25.3257 157.012L70.9493 105.835Z" fill="#E8EBF0"/>
<rect x="60.9941" y="148.512" width="132" height="20" rx="5" transform="rotate(-35.6459 60.9941 148.512)" fill="#E8EBF0"/>
<path d="M51.944 179.472C52.159 179.472 52.3496 179.609 52.4177 179.813L53.7519 183.814C53.8597 184.138 53.6179 184.472 53.2768 184.472L50.0833 184.472C49.7433 184.472 49.5017 184.14 49.6072 183.817L50.9147 179.817C50.9818 179.611 51.1731 179.472 51.3893 179.472L51.944 179.472Z" fill="#E8EBF0" stroke="#E8EBF0"/>
<rect x="49.7129" y="157.477" width="4" height="15" rx="2" fill="#E8EBF0"/>
<rect x="48.709" y="173.939" width="6" height="3" rx="1.5" fill="#E8EBF0"/>
<path d="M51.709 178.939C51.709 183.939 44.5455 194.439 35.709 194.439C44.5455 194.439 51.709 201.827 51.709 210.939C51.709 201.827 58.8724 194.439 67.709 194.439C58.8724 194.439 51.709 183.939 51.709 178.939Z" fill="#E8EBF0"/>
</svg>
