<svg viewBox="0 0 67 88" fill="none" xmlns="http://www.w3.org/2000/svg">
<path d="M64 19.4754V79.3992C64 84.0575 60.2237 87.8338 55.5654 87.8338H8.43457C3.77629 87.8338 0 84.0575 0 79.3992V10.9346C0 6.2763 3.77629 2.5 8.43458 2.5H45.5185L64 19.4754Z" fill="#2E8599"/>
<path d="M52 61.583C54.7614 61.583 57 63.8216 57 66.583V74.583C57 77.3444 54.7614 79.583 52 79.583H12C9.23858 79.583 7 77.3444 7 74.583V66.583C7 63.8216 9.23858 61.583 12 61.583H52ZM25.875 65.4365C25.1864 65.4365 24.5463 65.5495 23.9561 65.7744C23.366 65.9994 22.8486 66.327 22.4043 66.7578C21.9599 67.1887 21.6138 67.715 21.3662 68.3359C21.122 68.9537 21 69.6574 21 70.4463C21 71.4726 21.2049 72.3598 21.6152 73.1074C22.029 73.8519 22.6064 74.4275 23.3457 74.833C24.085 75.2352 24.9434 75.4364 25.9199 75.4365C26.7951 75.4365 27.5726 75.2718 28.251 74.9424C28.9294 74.6097 29.4629 74.1369 29.8496 73.5254C30.2361 72.9108 30.4297 72.1755 30.4297 71.3203V70.0947H26.0684V71.6436H28.3057C28.2967 72.0327 28.2029 72.3721 28.0225 72.6611C27.8359 72.9652 27.5641 73.2012 27.208 73.3691C26.8553 73.5338 26.4291 73.6162 25.9307 73.6162C25.3813 73.6161 24.9045 73.4921 24.501 73.2451C24.0974 72.9948 23.7849 72.6323 23.5645 72.1572C23.3441 71.6821 23.2335 71.1055 23.2334 70.4277C23.2334 69.7497 23.3454 69.175 23.5693 68.7061C23.7931 68.2343 24.1059 67.875 24.5059 67.6279C24.9094 67.3809 25.3778 67.2569 25.9102 67.2568C26.1951 67.2568 26.4554 67.2899 26.6895 67.3564C26.9267 67.423 27.1363 67.5208 27.3193 67.6475C27.5059 67.771 27.6641 67.9229 27.793 68.1035C27.9217 68.2808 28.0216 68.4848 28.0928 68.7158H30.332C30.2608 68.2346 30.1003 67.7944 29.8496 67.3955C29.5986 66.9931 29.2739 66.645 28.877 66.3535C28.4836 66.0622 28.0321 65.8381 27.5234 65.6797C27.0147 65.5182 26.4651 65.4366 25.875 65.4365ZM32.084 65.5693V75.3027H34.2871V65.5693H32.084ZM36.1006 65.5693V75.3027H38.3037V71.2822H42.542V69.5859H38.3037V67.2666H43V65.5693H36.1006Z" fill="white"/>
<path d="M33.9588 50.3728C33.3177 50.4565 32.6639 50.5 32 50.5C31.336 50.5 30.6821 50.4565 30.0409 50.3728L30.2349 48.8857C30.8119 48.961 31.401 49 32 49C32.599 49 33.1881 48.961 33.7651 48.8857L33.9588 50.3728Z" fill="white"/>
<path d="M23.7822 46.2115C24.7117 46.9258 25.7362 47.5213 26.8329 47.9761L26.2584 49.3606C25.0389 48.8549 23.9009 48.193 22.8687 47.3998L23.7822 46.2115Z" fill="white"/>
<path d="M41.131 47.3998C40.0988 48.193 38.9608 48.8549 37.7413 49.3606L37.1671 47.9761C38.2638 47.5213 39.2883 46.9258 40.2178 46.2115L41.131 47.3998Z" fill="white"/>
<path d="M19.5239 40.6671C19.9787 41.7638 20.5742 42.7883 21.2885 43.7178L20.0999 44.631C19.3067 43.5988 18.6447 42.4608 18.1391 41.2413L19.5239 40.6671Z" fill="white"/>
<path d="M45.8606 41.2413C45.3549 42.4608 44.693 43.5988 43.8998 44.631L42.7115 43.7178C43.4258 42.7883 44.0213 41.7638 44.4761 40.6671L45.8606 41.2413Z" fill="white"/>
<path d="M28.134 32.1971C28.6796 32.1971 29.1756 32.2868 29.622 32.4666C30.0684 32.6464 30.4435 32.9101 30.7473 33.2573L29.9847 34.0012C29.4887 33.5052 28.8902 33.2573 28.1896 33.2573C27.7309 33.2573 27.3217 33.3534 26.9621 33.5456C26.6088 33.7378 26.3297 34.0073 26.1251 34.3545C25.9267 34.7017 25.8274 35.0987 25.8274 35.5451C25.8275 35.979 25.9267 36.3695 26.1251 36.7167C26.3297 37.0639 26.6087 37.3369 26.9621 37.5353C27.3217 37.7336 27.7277 37.8329 28.1803 37.8329C28.6887 37.8329 29.1353 37.7212 29.5197 37.498V36.7H28.1V35.5H29.5197V35.4707H30.6635V38.0652C30.3287 38.3318 29.938 38.5364 29.4916 38.679C29.0452 38.8216 28.5864 38.8929 28.1152 38.8929C27.4519 38.8929 26.8537 38.7503 26.3205 38.4651C25.7873 38.1737 25.3686 37.7738 25.0648 37.2654C24.7611 36.7571 24.6093 36.1836 24.6093 35.5451C24.6093 34.9065 24.7611 34.3329 25.0648 33.8245C25.3686 33.3161 25.7873 32.9194 26.3205 32.6342C26.8599 32.3428 27.4644 32.1971 28.134 32.1971Z" fill="white"/>
<path d="M33.0951 38.8H31.886V32.2899H33.0951V38.8Z" fill="white"/>
<path d="M39.2363 33.3036H35.6929V35.2847H38.8364V36.3077H35.6929V38.8H34.4838V32.2899H39.2363V33.3036Z" fill="white"/>
<path d="M18.6143 33.7349C18.539 34.3119 18.5 34.901 18.5 35.5C18.5 36.099 18.539 36.6881 18.6143 37.2651L17.1269 37.4588C17.0432 36.8177 17 36.1639 17 35.5C17 34.8528 17.0409 34.2152 17.1204 33.5895L17.1269 33.5409L18.6143 33.7349Z" fill="white"/>
<path d="M46.8728 33.5409C46.9565 34.1821 47 34.836 47 35.5C47 36.1639 46.9565 36.8177 46.8728 37.4588L45.3857 37.2651C45.461 36.6881 45.5 36.099 45.5 35.5C45.5 34.901 45.461 34.3119 45.3857 33.7349L46.8728 33.5409Z" fill="white"/>
<path d="M21.2885 27.2822C20.5742 28.2117 19.9787 29.2362 19.5239 30.3329L18.1391 29.7584C18.6448 28.5389 19.3067 27.4009 20.0999 26.3687L21.2885 27.2822Z" fill="white"/>
<path d="M43.8998 26.3687C44.693 27.4009 45.3549 28.5389 45.8606 29.7584L44.4761 30.3329C44.0213 29.2362 43.4258 28.2117 42.7115 27.2822L43.8998 26.3687Z" fill="white"/>
<path d="M26.8329 23.0239C25.7362 23.4787 24.7117 24.0742 23.7822 24.7885L22.8687 23.5999C23.9009 22.8067 25.0389 22.1448 26.2584 21.6391L26.8329 23.0239Z" fill="white"/>
<path d="M37.7413 21.6391C38.9608 22.1447 40.0988 22.8067 41.131 23.5999L40.2178 24.7885C39.2883 24.0742 38.2638 23.4787 37.1671 23.0239L37.7413 21.6391Z" fill="white"/>
<path d="M32 20.5C32.6639 20.5 33.3177 20.5432 33.9588 20.6269L33.7651 22.1143C33.1881 22.039 32.599 22 32 22C31.401 22 30.8119 22.039 30.2349 22.1143L30.0409 20.6269C30.6821 20.5432 31.336 20.5 32 20.5Z" fill="white"/>
<g filter="url(#filter0_d_18_950)">
<path d="M63.9995 19.4754H47.6267C46.4621 19.4754 45.5181 18.5314 45.5181 17.3668V2.5L63.9995 19.4754Z" fill="#E4E7EC"/>
</g>
<defs>
<filter id="filter0_d_18_950" x="39.1921" y="0.391356" width="26.916" height="25.4099" filterUnits="userSpaceOnUse" color-interpolation-filters="sRGB">
<feFlood flood-opacity="0" result="BackgroundImageFix"/>
<feColorMatrix in="SourceAlpha" type="matrix" values="0 0 0 0 0 0 0 0 0 0 0 0 0 0 0 0 0 0 127 0" result="hardAlpha"/>
<feOffset dx="-2.10864" dy="2.10864"/>
<feGaussianBlur stdDeviation="2.10864"/>
<feComposite in2="hardAlpha" operator="out"/>
<feColorMatrix type="matrix" values="0 0 0 0 0 0 0 0 0 0 0 0 0 0 0 0 0 0 0.2 0"/>
<feBlend mode="normal" in2="BackgroundImageFix" result="effect1_dropShadow_18_950"/>
<feBlend mode="normal" in="SourceGraphic" in2="effect1_dropShadow_18_950" result="shape"/>
</filter>
</defs>
</svg>
