<svg height="88" viewBox="0 0 67 88" fill="none" xmlns="http://www.w3.org/2000/svg">
<path d="M64 19.2047V79.1285C64 83.7868 60.2237 87.5631 55.5654 87.5631H8.43457C3.77629 87.5631 0 83.7868 0 79.1285V10.6638C0 6.00555 3.77629 2.22925 8.43458 2.22925H45.5185L64 19.2047Z" fill="#155EEF"/>
<path d="M52 61.4998C54.7613 61.4998 56.9999 63.7384 57 66.4998V74.4998C57 77.2612 54.7614 79.4998 52 79.4998H12C9.23858 79.4998 7 77.2612 7 74.4998V66.4998C7.00013 63.7384 9.23866 61.4998 12 61.4998H52ZM41.6123 65.4998C40.9489 65.4998 40.3323 65.6127 39.7637 65.8376C39.1952 66.0625 38.6966 66.3904 38.2686 66.821C37.8405 67.2519 37.5071 67.7783 37.2686 68.3992C37.0332 69.017 36.916 69.7206 36.916 70.5095C36.916 71.536 37.1133 72.4229 37.5088 73.1707C37.9075 73.9152 38.4633 74.4907 39.1758 74.8962C39.8882 75.2985 40.7151 75.4997 41.6562 75.4998C42.4995 75.4998 43.2486 75.3351 43.9023 75.0056C44.5559 74.6729 45.0689 74.2 45.4414 73.5886C45.8138 72.974 46 72.2388 46 71.3835V70.158H41.7988V71.7068H43.9541C43.9454 72.096 43.8546 72.4353 43.6807 72.7244C43.5009 73.0283 43.2395 73.2645 42.8965 73.4324C42.5566 73.597 42.1463 73.6794 41.666 73.6794C41.1366 73.6794 40.677 73.5555 40.2881 73.3083C39.8994 73.0581 39.5981 72.6955 39.3857 72.2205C39.1734 71.7454 39.0674 71.1686 39.0674 70.491C39.0674 69.8129 39.1759 69.2382 39.3916 68.7693C39.6073 68.2976 39.9076 67.9382 40.293 67.6912C40.6819 67.444 41.1334 67.3201 41.6465 67.3201C41.9209 67.3201 42.1711 67.3532 42.3965 67.4197C42.6253 67.4862 42.8284 67.584 43.0049 67.7107C43.1844 67.8342 43.3369 67.9863 43.4609 68.1667C43.5849 68.344 43.6814 68.5481 43.75 68.7791H45.9072C45.8386 68.2978 45.683 67.8577 45.4414 67.4587C45.1995 67.0563 44.8873 66.7082 44.5049 66.4167C44.1259 66.1255 43.6911 65.9013 43.2012 65.7429C42.7109 65.5813 42.181 65.4998 41.6123 65.4998ZM18 65.6326V75.366H20.123V72.2107H21.9082C22.6793 72.2106 23.3365 72.0722 23.8789 71.7966C24.4245 71.521 24.8414 71.1364 25.1289 70.6423C25.4165 70.1482 25.5605 69.5776 25.5605 68.9314C25.5605 68.2852 25.418 67.7146 25.1338 67.2205C24.8527 66.723 24.4433 66.3352 23.9072 66.0564C23.3713 65.7746 22.7232 65.6326 21.9619 65.6326H18ZM26.9395 65.6326V75.366H29.0615V69.24H29.1357L33.5039 75.366H35.3369V65.6326H33.2246V71.7546H33.1357L28.8018 65.6326H26.9395ZM21.5547 67.3152C21.9663 67.3152 22.3063 67.3841 22.5742 67.5203C22.8419 67.6532 23.0412 67.8411 23.1719 68.0847C23.3059 68.3255 23.374 68.6083 23.374 68.9314C23.374 69.2513 23.3058 69.5349 23.1719 69.782C23.0411 70.0258 22.8421 70.2178 22.5742 70.3572C22.3096 70.4933 21.9727 70.5612 21.5645 70.5613H20.123V67.3152H21.5547Z" fill="white"/>
<path d="M27.333 47.2783H24.2227V44.167H27.333V47.2783Z" fill="white"/>
<path d="M33.5557 47.2783H30.4443V44.167H33.5557V47.2783Z" fill="white"/>
<path d="M30.4443 44.167H27.333V41.0557H30.4443V44.167Z" fill="white"/>
<path d="M36.667 44.167H33.5557V41.0557H36.667V44.167Z" fill="white"/>
<path d="M27.333 41.0557H24.2227V37.9443H27.333V41.0557Z" fill="white"/>
<path d="M33.5557 41.0557H30.4443V37.9443H33.5557V41.0557Z" fill="white"/>
<path d="M30.4443 37.9443H27.333V34.834H30.4443V37.9443Z" fill="white"/>
<path d="M36.667 37.9443H33.5557V34.834L36.667 34.833V37.9443Z" fill="white"/>
<path d="M27.333 34.834H24.2227V31.7227H27.333V34.834Z" fill="white"/>
<path d="M33.5557 34.834H30.4443V31.7227H33.5557V34.834Z" fill="white"/>
<path fill-rule="evenodd" clip-rule="evenodd" d="M42.6113 25.5C44.268 25.5003 45.6113 26.8433 45.6113 28.5V50.5C45.6113 52.1569 44.2672 53.5 42.6104 53.5H21C19.3431 53.5 18 52.1569 18 50.5V28.5C18 26.8431 19.3431 25.5 21 25.5H42.6113ZM24.2227 31.7227H21.1113V34.834H24.2227V37.9443H21.1113V41.0557H24.2227V44.167H21.1113V47.2783H24.2227V50H27.333V47.2783H30.4443V50H33.5557V47.2783H36.667V50H39.7783V47.2783H42.6113V44.167H39.7783V47.2783H36.667V44.167H39.7783V41.0557H42.6113V37.9443H39.7783V41.0557H36.667V37.9443H39.7783V34.834H42.6113V31.7227H39.7783V34.834L36.667 34.833V31.7227H39.7783V29H36.667V31.7227H33.5557V29H30.4443V31.7227H27.333V29H24.2227V31.7227Z" fill="white"/>
<g filter="url(#filter0_d_18_900)">
<path d="M63.9995 19.2047H47.6267C46.4621 19.2047 45.5181 18.2606 45.5181 17.096V2.22925L63.9995 19.2047Z" fill="#E4E7EC"/>
</g>
<defs>
<filter id="filter0_d_18_900" x="39.1921" y="0.120604" width="26.916" height="25.4099" filterUnits="userSpaceOnUse" color-interpolation-filters="sRGB">
<feFlood flood-opacity="0" result="BackgroundImageFix"/>
<feColorMatrix in="SourceAlpha" type="matrix" values="0 0 0 0 0 0 0 0 0 0 0 0 0 0 0 0 0 0 127 0" result="hardAlpha"/>
<feOffset dx="-2.10864" dy="2.10864"/>
<feGaussianBlur stdDeviation="2.10864"/>
<feComposite in2="hardAlpha" operator="out"/>
<feColorMatrix type="matrix" values="0 0 0 0 0 0 0 0 0 0 0 0 0 0 0 0 0 0 0.2 0"/>
<feBlend mode="normal" in2="BackgroundImageFix" result="effect1_dropShadow_18_900"/>
<feBlend mode="normal" in="SourceGraphic" in2="effect1_dropShadow_18_900" result="shape"/>
</filter>
</defs>
</svg>
