<svg viewBox="0 0 67 88" fill="none" xmlns="http://www.w3.org/2000/svg">
<path d="M64 19.2047V79.1285C64 83.7868 60.2237 87.5631 55.5654 87.5631H8.43457C3.77629 87.5631 0 83.7868 0 79.1285V10.6638C0 6.00555 3.77629 2.22925 8.43458 2.22925H45.5185L64 19.2047Z" fill="#465167"/>
<path fill-rule="evenodd" clip-rule="evenodd" d="M42.2632 25.5C44.8792 25.5 47 27.48 47 29.9217V49.0791C46.9998 51.5205 44.8791 53.5 42.2632 53.5H21.7368C19.1209 53.5 17.0002 51.5205 17 49.0791V29.9217C17 27.48 19.1208 25.5 21.7368 25.5H42.2632ZM28.7642 37.9468C28.4312 37.4981 27.7092 37.5316 27.4251 38.0087L21.4015 48.1278C21.1097 48.6188 21.4905 49.2223 22.0923 49.2223H42.0242C42.6859 49.2221 43.054 48.5073 42.6409 48.0249L37.551 42.0879C37.2571 41.7451 36.7095 41.7165 36.3768 42.0267L34.336 43.9314C33.9879 44.2561 33.4091 44.2074 33.1287 43.8299L28.7642 37.9468ZM38.2503 29.7785C36.0642 29.7785 34.2921 31.4324 34.2921 33.4727C34.2923 35.5128 36.0643 37.1668 38.2503 37.1668C40.4362 37.1667 42.2082 35.5128 42.2084 33.4727C42.2084 31.4324 40.4363 29.7786 38.2503 29.7785Z" fill="white"/>
<path d="M52 61.4998C54.7613 61.4998 56.9999 63.7384 57 66.4998V74.4998C57 77.2612 54.7614 79.4998 52 79.4998H12C9.23858 79.4998 7 77.2612 7 74.4998V66.4998C7.00013 63.7384 9.23866 61.4998 12 61.4998H52ZM40.1621 65.4998C39.5191 65.4998 38.9213 65.6128 38.3701 65.8376C37.8192 66.0625 37.3358 66.3905 36.9209 66.821C36.506 67.2518 36.1824 67.7784 35.9512 68.3992C35.7231 69.0169 35.6094 69.7208 35.6094 70.5095C35.6094 71.5359 35.8013 72.423 36.1846 73.1707C36.571 73.915 37.1093 74.4898 37.7998 74.8953C38.4905 75.2976 39.2927 75.4998 40.2051 75.4998C41.0222 75.4997 41.7483 75.335 42.3818 75.0056C43.0153 74.6729 43.5129 74.2 43.874 73.5886C44.235 72.9741 44.416 72.2387 44.416 71.3835V70.158H40.3428V71.7068H42.4326C42.4242 72.0955 42.3362 72.4346 42.168 72.7234C41.9938 73.0273 41.7395 73.2635 41.4072 73.4314C41.0778 73.5961 40.6794 73.6794 40.2139 73.6794C39.7009 73.6794 39.2558 73.5553 38.8789 73.3083C38.5019 73.058 38.2099 72.6947 38.0039 72.2195C37.7982 71.7444 37.6953 71.1676 37.6953 70.49C37.6954 69.8122 37.7997 69.2381 38.0088 68.7693C38.2179 68.2975 38.5101 67.9372 38.8838 67.6902C39.2606 67.4435 39.6983 67.3201 40.1953 67.3201C40.461 67.3201 40.7036 67.3533 40.9219 67.4197C41.1434 67.4862 41.3408 67.5831 41.5117 67.7097C41.6858 67.8332 41.8338 67.9854 41.9541 68.1658C42.0744 68.3431 42.1679 68.548 42.2344 68.7791H44.3252C44.2586 68.2977 44.1084 67.8568 43.874 67.4578C43.6396 67.0555 43.3364 66.7082 42.9658 66.4167C42.5985 66.1255 42.1771 65.9003 41.7021 65.7419C41.2271 65.5804 40.7132 65.4998 40.1621 65.4998ZM19.7822 65.6326V75.366H21.8398V65.6326H19.7822ZM23.5332 65.6326V75.366H25.5293V69.0066H25.6104L28.1289 75.3191H29.4883L32.0078 69.031H32.0879V75.366H34.084V65.6326H31.5469L28.8662 72.1726H28.752L26.0713 65.6326H23.5332Z" fill="white"/>
<g filter="url(#filter0_d_18_893)">
<path d="M63.9995 19.2047H47.6267C46.4621 19.2047 45.5181 18.2606 45.5181 17.096V2.22925L63.9995 19.2047Z" fill="#E4E7EC"/>
</g>
<defs>
<filter id="filter0_d_18_893" x="39.1921" y="0.120604" width="26.916" height="25.4099" filterUnits="userSpaceOnUse" color-interpolation-filters="sRGB">
<feFlood flood-opacity="0" result="BackgroundImageFix"/>
<feColorMatrix in="SourceAlpha" type="matrix" values="0 0 0 0 0 0 0 0 0 0 0 0 0 0 0 0 0 0 127 0" result="hardAlpha"/>
<feOffset dx="-2.10864" dy="2.10864"/>
<feGaussianBlur stdDeviation="2.10864"/>
<feComposite in2="hardAlpha" operator="out"/>
<feColorMatrix type="matrix" values="0 0 0 0 0 0 0 0 0 0 0 0 0 0 0 0 0 0 0.2 0"/>
<feBlend mode="normal" in2="BackgroundImageFix" result="effect1_dropShadow_18_893"/>
<feBlend mode="normal" in="SourceGraphic" in2="effect1_dropShadow_18_893" result="shape"/>
</filter>
</defs>
</svg>
