<svg viewBox="0 0 67 89" fill="none" xmlns="http://www.w3.org/2000/svg">
<path d="M64 19.9832V79.9071C64 84.5653 60.2237 88.3416 55.5654 88.3416H8.43457C3.77629 88.3416 0 84.5653 0 79.9071V11.4424C0 6.78411 3.77629 3.00781 8.43458 3.00781H45.5185L64 19.9832Z" fill="#FF1200"/>
<path d="M52 62.5C54.7614 62.5 57 64.7386 57 67.5V75.5C57 78.2614 54.7614 80.5 52 80.5H12C9.23858 80.5 7 78.2614 7 75.5V67.5C7 64.7386 9.23858 62.5 12 62.5H52ZM21 66.5V76.5H25.4111C26.1839 76.5 26.8347 76.3794 27.3623 76.1387C27.8897 75.8978 28.2888 75.5705 28.5576 75.1572C28.8297 74.7407 28.9658 74.2667 28.9658 73.7363C28.9658 73.245 28.8575 72.8215 28.6426 72.4668C28.4275 72.1089 28.1468 71.8303 27.8008 71.6318C27.458 71.4333 27.0895 71.3258 26.6963 71.3096V71.2119C27.0558 71.1338 27.3754 71.0019 27.6543 70.8164C27.9365 70.6276 28.159 70.3867 28.3203 70.0938C28.4815 69.7976 28.5615 69.4539 28.5615 69.0635C28.5615 68.5623 28.434 68.1194 28.1787 67.7354C27.9233 67.3481 27.5415 67.0452 27.0342 66.8271C26.5268 66.6092 25.8931 66.5 25.1338 66.5H21ZM30.3857 66.5V76.5H32.5684V66.5H30.3857ZM34.3643 66.5V76.5H36.5469V70.2061H36.623L41.1143 76.5H43V66.5H40.8271V72.7891H40.7363L36.2803 66.5H34.3643ZM25.0127 72.1152C25.3621 72.1152 25.663 72.1755 25.915 72.2959C26.1705 72.4163 26.3681 72.5824 26.5059 72.7939C26.6435 73.0054 26.7119 73.2499 26.7119 73.5264C26.7119 73.9038 26.5726 74.2068 26.2939 74.4346C26.0151 74.6591 25.571 74.7714 24.9629 74.7715H23.1826V72.1152H25.0127ZM24.8418 68.209C25.3256 68.209 25.6988 68.3197 25.9609 68.541C26.2263 68.7623 26.3593 69.0539 26.3594 69.415C26.3593 69.6786 26.29 69.905 26.1523 70.0938C26.018 70.2824 25.8327 70.429 25.5977 70.5332C25.3659 70.634 25.0997 70.6846 24.8008 70.6846H23.1826V68.209H24.8418Z" fill="white"/>
<path d="M29.6053 48.1667C30.2593 48.1667 30.7895 48.689 30.7895 49.3333C30.7895 49.9777 30.2593 50.5 29.6053 50.5H16.1842C15.5302 50.5 15 49.9777 15 49.3333C15 48.689 15.5302 48.1667 16.1842 48.1667H29.6053Z" fill="white"/>
<path d="M47.8158 41.9444C48.4698 41.9444 49 42.4668 49 43.1111C49 43.7554 48.4698 44.2778 47.8158 44.2778H16.1842C15.5302 44.2778 15 43.7554 15 43.1111C15 42.4668 15.5302 41.9444 16.1842 41.9444H47.8158Z" fill="white"/>
<path d="M47.8158 35.7222C48.4698 35.7222 49 36.2446 49 36.8889C49 37.5332 48.4698 38.0556 47.8158 38.0556H16.1842C15.5302 38.0556 15 37.5332 15 36.8889C15 36.2446 15.5302 35.7222 16.1842 35.7222H47.8158Z" fill="white"/>
<path d="M47.8158 29.5C48.4698 29.5 49 30.0223 49 30.6667C49 31.311 48.4698 31.8333 47.8158 31.8333H16.1842C15.5302 31.8333 15 31.311 15 30.6667C15 30.0223 15.5302 29.5 16.1842 29.5H47.8158Z" fill="white"/>
<g filter="url(#filter0_d_18_487)">
<path d="M63.9995 19.9832H47.6267C46.4621 19.9832 45.5181 19.0392 45.5181 17.8746V3.00781L63.9995 19.9832Z" fill="#E4E7EC"/>
</g>
<defs>
<filter id="filter0_d_18_487" x="39.1921" y="0.899168" width="26.916" height="25.4099" filterUnits="userSpaceOnUse" color-interpolation-filters="sRGB">
<feFlood flood-opacity="0" result="BackgroundImageFix"/>
<feColorMatrix in="SourceAlpha" type="matrix" values="0 0 0 0 0 0 0 0 0 0 0 0 0 0 0 0 0 0 127 0" result="hardAlpha"/>
<feOffset dx="-2.10864" dy="2.10864"/>
<feGaussianBlur stdDeviation="2.10864"/>
<feComposite in2="hardAlpha" operator="out"/>
<feColorMatrix type="matrix" values="0 0 0 0 0 0 0 0 0 0 0 0 0 0 0 0 0 0 0.2 0"/>
<feBlend mode="normal" in2="BackgroundImageFix" result="effect1_dropShadow_18_487"/>
<feBlend mode="normal" in="SourceGraphic" in2="effect1_dropShadow_18_487" result="shape"/>
</filter>
</defs>
</svg>
