<svg viewBox="0 0 67 88" fill="none" xmlns="http://www.w3.org/2000/svg">
<path d="M64 19.1112V79.035C64 83.6933 60.2237 87.4696 55.5654 87.4696H8.43457C3.77629 87.4696 0 83.6933 0 79.035V10.5703C0 5.91204 3.77629 2.13574 8.43458 2.13574H45.5185L64 19.1112Z" fill="#008201"/>
<path d="M46 30.5C47.6569 30.5 49 31.8431 49 33.5V44.5C49 46.1569 47.6569 47.5 46 47.5H18C16.3431 47.5 15 46.1569 15 44.5V33.5C15 31.8431 16.3431 30.5 18 30.5H46ZM17 42.5V45.5H23V42.5H17ZM25 42.5V45.5H31V42.5H25ZM33 42.5V45.5H39V42.5H33ZM41 42.5V45.5H47V42.5H41ZM17 37.5V40.5H23V37.5H17ZM25 37.5V40.5H31V37.5H25ZM33 37.5V40.5H39V37.5H33ZM41 37.5V40.5H47V37.5H41ZM17 32.5V35.5H23V32.5H17ZM25 32.5V35.5H31V32.5H25ZM33 32.5V35.5H39V32.5H33ZM41 32.5V35.5H47V32.5H41Z" fill="white"/>
<path d="M52 61.5C54.7614 61.5 57 63.7386 57 66.5V74.5C57 77.2614 54.7614 79.5 52 79.5H12C9.23858 79.5 7 77.2614 7 74.5V66.5C7 63.7386 9.23858 61.5 12 61.5H52ZM32.4453 65.5C31.7572 65.5 31.1423 65.6241 30.6016 65.8711C30.061 66.1181 29.6354 66.4613 29.3252 66.9014C29.018 67.3416 28.8661 67.8563 28.8691 68.4453C28.8661 69.1642 29.0949 69.7358 29.5557 70.1602C30.0165 70.5845 30.6448 70.8972 31.4404 71.0967L32.4688 71.3623C32.8125 71.4477 33.1025 71.543 33.3389 71.6475C33.5783 71.7519 33.7599 71.8786 33.8828 72.0273C34.0087 72.1762 34.0723 72.3606 34.0723 72.5791C34.0721 72.8131 34.0023 73.0199 33.8643 73.2002C33.726 73.3807 33.5312 73.5227 33.2793 73.624C33.0305 73.7253 32.7372 73.7754 32.3994 73.7754C32.0553 73.7754 31.7461 73.7219 31.4727 73.6143C31.2023 73.5034 30.9861 73.3394 30.8232 73.124C30.6637 72.9056 30.5723 72.6335 30.5508 72.3076H28.6201C28.6355 73.0074 28.7999 73.5953 29.1133 74.0703C29.4297 74.5422 29.8694 74.899 30.4316 75.1396C30.9968 75.3802 31.6603 75.5 32.4219 75.5C33.1898 75.5 33.8459 75.381 34.3896 75.1436C34.9365 74.9029 35.3548 74.5657 35.6436 74.1318C35.9354 73.6948 36.0829 73.1784 36.0859 72.583C36.0828 72.1779 36.0103 71.8183 35.8691 71.5049C35.7309 71.1915 35.536 70.9186 35.2842 70.6875C35.0323 70.4563 34.7337 70.2618 34.3896 70.1035C34.0456 69.9452 33.6674 69.8186 33.2559 69.7236L32.4082 69.5146C32.2024 69.4672 32.0084 69.4093 31.8271 69.3428C31.6461 69.2732 31.4857 69.1923 31.3477 69.1006C31.2098 69.0057 31.1012 68.8932 31.0215 68.7637C30.9448 68.6339 30.9089 68.4816 30.915 68.3076C30.9151 68.0987 30.9741 67.9117 31.0908 67.7471C31.2106 67.5825 31.3823 67.4541 31.6064 67.3623C31.8307 67.2673 32.106 67.2197 32.4316 67.2197C32.9107 67.2198 33.2898 67.326 33.5693 67.5381C33.8489 67.7503 34.0071 68.0484 34.0439 68.4316H35.957C35.9478 67.8521 35.7968 67.3416 35.5049 66.9014C35.2131 66.4613 34.8045 66.1181 34.2793 65.8711C33.7571 65.6241 33.1457 65.5 32.4453 65.5ZM23.3965 65.5C22.5671 65.5 21.8198 65.6962 21.1562 66.0889C20.4928 66.4784 19.9681 67.0459 19.5811 67.79C19.194 68.5343 19 69.4371 19 70.498C19 71.5554 19.1906 72.4561 19.5713 73.2002C19.9553 73.9444 20.4781 74.5135 21.1387 74.9062C21.8022 75.2988 22.5549 75.4961 23.3965 75.4961C24.0016 75.4961 24.5442 75.4017 25.0234 75.2148C25.5057 75.0248 25.9205 74.7683 26.2676 74.4453C26.6177 74.1192 26.8958 73.7504 27.1016 73.3389C27.3104 72.9241 27.4409 72.4932 27.4932 72.0469L25.4746 72.0371C25.4285 72.2966 25.3463 72.5279 25.2266 72.7305C25.1098 72.9331 24.9623 73.1065 24.7842 73.249C24.6061 73.3883 24.4012 73.4936 24.1709 73.5664C23.9436 73.6392 23.696 73.6758 23.4287 73.6758C22.9526 73.6758 22.5334 73.555 22.1709 73.3145C21.8086 73.0738 21.526 72.7177 21.3232 72.2461C21.1236 71.7743 21.0225 71.1915 21.0225 70.498C21.0225 69.8235 21.1235 69.2492 21.3232 68.7773C21.5229 68.3026 21.8037 67.9412 22.166 67.6943C22.5284 67.4443 22.9541 67.3194 23.4424 67.3193C23.7127 67.3193 23.9639 67.3593 24.1943 67.4385C24.4276 67.5176 24.6335 67.6316 24.8115 67.7803C24.9897 67.9291 25.1354 68.1101 25.249 68.3223C25.3626 68.5312 25.4377 68.7701 25.4746 69.0391H27.4932C27.4286 68.4754 27.2812 67.9751 27.0508 67.5381C26.8235 67.1011 26.5284 66.7325 26.166 66.4316C25.8035 66.1276 25.387 65.8957 24.917 65.7373C24.4502 65.5791 23.9431 65.5 23.3965 65.5ZM36.917 65.6328L40.1748 75.3623H42.7461L46 65.6328H43.7881L41.502 73.0254H41.4141L39.1328 65.6328H36.917Z" fill="white"/>
<g filter="url(#filter0_d_18_193)">
<path d="M63.9995 19.1112H47.6267C46.4621 19.1112 45.5181 18.1671 45.5181 17.0025V2.13574L63.9995 19.1112Z" fill="#E4E7EC"/>
</g>
<defs>
<filter id="filter0_d_18_193" x="39.1921" y="0.0270982" width="26.916" height="25.4099" filterUnits="userSpaceOnUse" color-interpolation-filters="sRGB">
<feFlood flood-opacity="0" result="BackgroundImageFix"/>
<feColorMatrix in="SourceAlpha" type="matrix" values="0 0 0 0 0 0 0 0 0 0 0 0 0 0 0 0 0 0 127 0" result="hardAlpha"/>
<feOffset dx="-2.10864" dy="2.10864"/>
<feGaussianBlur stdDeviation="2.10864"/>
<feComposite in2="hardAlpha" operator="out"/>
<feColorMatrix type="matrix" values="0 0 0 0 0 0 0 0 0 0 0 0 0 0 0 0 0 0 0.2 0"/>
<feBlend mode="normal" in2="BackgroundImageFix" result="effect1_dropShadow_18_193"/>
<feBlend mode="normal" in="SourceGraphic" in2="effect1_dropShadow_18_193" result="shape"/>
</filter>
</defs>
</svg>
