<svg viewBox="0 0 67 89" fill="none" xmlns="http://www.w3.org/2000/svg">
<path d="M64 19.8726V79.7965C64 84.4547 60.2237 88.231 55.5654 88.231H8.43457C3.77629 88.231 0 84.4547 0 79.7965V11.3318C0 6.67352 3.77629 2.89722 8.43458 2.89722H45.5185L64 19.8726Z" fill="#9B00CF"/>
<path d="M53 61.4998C55.7613 61.4998 57.9999 63.7384 58 66.4998V74.4998C58 77.2612 55.7614 79.4998 53 79.4998H13C10.2386 79.4998 8 77.2612 8 74.4998V66.4998C8.00013 63.7384 10.2387 61.4998 13 61.4998H53ZM24 65.4998V67.2283H28.8066V67.2966L24.6807 75.4998H26.8535L30.9854 67.2527V65.4998H24ZM32.3691 65.4998V67.2429H37.3457L32.3789 74.2449V75.4998H40V73.7566H35.0176L39.9902 66.7546V65.4998H32.3691Z" fill="white"/>
<path fill-rule="evenodd" clip-rule="evenodd" d="M34.6154 45.5H34.1538L35.0769 50L34.1538 51.5H31.3846L30.4615 50L31.3846 45.5H30.9231L30 42H36L34.6154 45.5ZM32.7692 49C32.3869 49 32.0769 49.3358 32.0769 49.75C32.0769 50.1642 32.3869 50.5 32.7692 50.5C33.1516 50.5 33.4615 50.1642 33.4615 49.75C33.4615 49.3358 33.1516 49 32.7692 49Z" fill="white"/>
<path d="M33.2308 24.5C33.4857 24.5 33.6923 24.7239 33.6923 25V26C33.6923 26.2761 33.4857 26.5 33.2308 26.5H35.5385C35.7934 26.5 36 26.7239 36 27V28C36 28.2761 35.7934 28.5 35.5385 28.5H33.2308C33.4857 28.5 33.6923 28.7239 33.6923 29V30C33.6923 30.2761 33.4857 30.5 33.2308 30.5H35.5385C35.7934 30.5 36 30.7239 36 31V32C36 32.2761 35.7934 32.5 35.5385 32.5H33.2308C33.4857 32.5 33.6923 32.7239 33.6923 33V34C33.6923 34.2761 33.4857 34.5 33.2308 34.5H35.5385C35.7934 34.5 36 34.7239 36 35V36C36 36.2761 35.7934 36.5 35.5385 36.5H33.2308C33.4857 36.5 33.6923 36.7239 33.6923 37V38C33.6923 38.2761 33.4857 38.5 33.2308 38.5H35.5385C35.7934 38.5 36 38.7239 36 39V40C36 40.2761 35.7934 40.5 35.5385 40.5H32.7692C32.5143 40.5 32.3077 40.2761 32.3077 40V39C32.3077 38.7239 32.5143 38.5 32.7692 38.5H30.4615C30.2066 38.5 30 38.2761 30 38V37C30 36.7239 30.2066 36.5 30.4615 36.5H32.7692C32.5143 36.5 32.3077 36.2761 32.3077 36V35C32.3077 34.7239 32.5143 34.5 32.7692 34.5H30.4615C30.2066 34.5 30 34.2761 30 34V33C30 32.7239 30.2066 32.5 30.4615 32.5H32.7692C32.5143 32.5 32.3077 32.2761 32.3077 32V31C32.3077 30.7239 32.5143 30.5 32.7692 30.5H30.4615C30.2066 30.5 30 30.2761 30 30V29C30 28.7239 30.2066 28.5 30.4615 28.5H32.7692C32.5143 28.5 32.3077 28.2761 32.3077 28V27C32.3077 26.7239 32.5143 26.5 32.7692 26.5H30.4615C30.2066 26.5 30 26.2761 30 26V25C30 24.7239 30.2066 24.5 30.4615 24.5H33.2308Z" fill="white"/>
<g filter="url(#filter0_d_18_676)">
<path d="M63.9995 19.8726H47.6267C46.4621 19.8726 45.5181 18.9286 45.5181 17.764V2.89722L63.9995 19.8726Z" fill="#E4E7EC"/>
</g>
<defs>
<filter id="filter0_d_18_676" x="39.1921" y="0.788573" width="26.916" height="25.4099" filterUnits="userSpaceOnUse" color-interpolation-filters="sRGB">
<feFlood flood-opacity="0" result="BackgroundImageFix"/>
<feColorMatrix in="SourceAlpha" type="matrix" values="0 0 0 0 0 0 0 0 0 0 0 0 0 0 0 0 0 0 127 0" result="hardAlpha"/>
<feOffset dx="-2.10864" dy="2.10864"/>
<feGaussianBlur stdDeviation="2.10864"/>
<feComposite in2="hardAlpha" operator="out"/>
<feColorMatrix type="matrix" values="0 0 0 0 0 0 0 0 0 0 0 0 0 0 0 0 0 0 0.2 0"/>
<feBlend mode="normal" in2="BackgroundImageFix" result="effect1_dropShadow_18_676"/>
<feBlend mode="normal" in="SourceGraphic" in2="effect1_dropShadow_18_676" result="shape"/>
</filter>
</defs>
</svg>
