<svg viewBox="0 0 67 88" fill="none" xmlns="http://www.w3.org/2000/svg">
<path d="M64 19.5387V79.4625C64 84.1208 60.2237 87.897 55.5654 87.897H8.43457C3.77629 87.897 0 84.1208 0 79.4625V10.9978C0 6.33953 3.77629 2.56323 8.43458 2.56323H45.5185L64 19.5387Z" fill="#465167"/>
<path d="M52 61.4998C54.7613 61.4998 56.9999 63.7384 57 66.4998V74.4998C57 77.2612 54.7614 79.4998 52 79.4998H12C9.23858 79.4998 7 77.2612 7 74.4998V66.4998C7.00013 63.7384 9.23866 61.4998 12 61.4998H52ZM18 65.4998V67.2429H21.1484V75.4998H23.2979V67.2429H26.4463V65.4998H18ZM27.4102 65.4998L30.5684 70.5007L27.3506 75.4998H29.8408L31.9502 72.0867H32.0303L34.1396 75.4998H36.6406L33.4316 70.5007L36.5693 65.4998H34.1143L32.0303 68.908H31.9502L29.876 65.4998H27.4102ZM37.5537 65.4998V67.2429H40.7021V75.4998H42.8516V67.2429H46V65.4998H37.5537Z" fill="white"/>
<path d="M29.6053 47.1667C30.2593 47.1667 30.7895 47.689 30.7895 48.3333C30.7895 48.9777 30.2593 49.5 29.6053 49.5H16.1842C15.5302 49.5 15 48.9777 15 48.3333C15 47.689 15.5302 47.1667 16.1842 47.1667H29.6053Z" fill="white"/>
<path d="M47.8158 40.9444C48.4698 40.9444 49 41.4668 49 42.1111C49 42.7554 48.4698 43.2778 47.8158 43.2778H16.1842C15.5302 43.2778 15 42.7554 15 42.1111C15 41.4668 15.5302 40.9444 16.1842 40.9444H47.8158Z" fill="white"/>
<path d="M47.8158 34.7222C48.4698 34.7222 49 35.2446 49 35.8889C49 36.5332 48.4698 37.0556 47.8158 37.0556H16.1842C15.5302 37.0556 15 36.5332 15 35.8889C15 35.2446 15.5302 34.7222 16.1842 34.7222H47.8158Z" fill="white"/>
<path d="M47.8158 28.5C48.4698 28.5 49 29.0223 49 29.6667C49 30.311 48.4698 30.8333 47.8158 30.8333H16.1842C15.5302 30.8333 15 30.311 15 29.6667C15 29.0223 15.5302 28.5 16.1842 28.5H47.8158Z" fill="white"/>
<g filter="url(#filter0_d_18_165)">
<path d="M63.9995 19.5387H47.6267C46.4621 19.5387 45.5181 18.5946 45.5181 17.43V2.56323L63.9995 19.5387Z" fill="#E4E7EC"/>
</g>
<defs>
<filter id="filter0_d_18_165" x="39.1921" y="0.454588" width="26.916" height="25.4099" filterUnits="userSpaceOnUse" color-interpolation-filters="sRGB">
<feFlood flood-opacity="0" result="BackgroundImageFix"/>
<feColorMatrix in="SourceAlpha" type="matrix" values="0 0 0 0 0 0 0 0 0 0 0 0 0 0 0 0 0 0 127 0" result="hardAlpha"/>
<feOffset dx="-2.10864" dy="2.10864"/>
<feGaussianBlur stdDeviation="2.10864"/>
<feComposite in2="hardAlpha" operator="out"/>
<feColorMatrix type="matrix" values="0 0 0 0 0 0 0 0 0 0 0 0 0 0 0 0 0 0 0.2 0"/>
<feBlend mode="normal" in2="BackgroundImageFix" result="effect1_dropShadow_18_165"/>
<feBlend mode="normal" in="SourceGraphic" in2="effect1_dropShadow_18_165" result="shape"/>
</filter>
</defs>
</svg>
