<svg height="88" viewBox="0 0 67 88" fill="none" xmlns="http://www.w3.org/2000/svg">
<path d="M64 19.2047V79.1285C64 83.7868 60.2237 87.5631 55.5654 87.5631H8.43457C3.77629 87.5631 0 83.7868 0 79.1285V10.6638C0 6.00555 3.77629 2.22925 8.43458 2.22925H45.5185L64 19.2047Z" fill="#155EEF"/>
<path d="M45 44.8266L32 50.5L19 44.8266L23.6576 42.7937L32 46.4343L40.3418 42.7937L45 44.8266Z" fill="white"/>
<path d="M45 39.5L32 45.1734L19 39.5L23.73 37.4356L32 41.0445L40.2694 37.4356L45 39.5Z" fill="white"/>
<path d="M45 34.1734L32 39.8468L19 34.1734L32 28.5L45 34.1734Z" fill="white"/>
<path d="M52 61.4998C54.7613 61.4998 56.9999 63.7384 57 66.4998V74.4998C57 77.2612 54.7614 79.4998 52 79.4998H12C9.23858 79.4998 7 77.2612 7 74.4998V66.4998C7.00013 63.7384 9.23866 61.4998 12 61.4998H52ZM31.4648 65.4998C30.7456 65.4998 30.1032 65.6239 29.5381 65.8708C28.973 66.1178 28.5275 66.4611 28.2031 66.9011C27.8821 67.3412 27.7224 67.8562 27.7256 68.4451C27.7224 69.1639 27.9627 69.7355 28.4443 70.1599C28.9261 70.5843 29.5832 70.8969 30.415 71.0964L31.4893 71.3621C31.8488 71.4475 32.1532 71.5427 32.4004 71.6472C32.6506 71.7517 32.8404 71.8784 32.9688 72.0271C33.1003 72.1759 33.166 72.3604 33.166 72.5789C33.1659 72.813 33.0936 73.0205 32.9492 73.2009C32.8047 73.3814 32.6002 73.5225 32.3369 73.6238C32.0769 73.725 31.77 73.7751 31.417 73.7751C31.0576 73.7751 30.7349 73.7215 30.4492 73.614C30.1667 73.5032 29.9397 73.34 29.7695 73.1248C29.6027 72.9064 29.5079 72.6342 29.4854 72.3083H27.4658C27.482 73.0079 27.654 73.5952 27.9814 74.0701C28.3122 74.5419 28.7717 74.8987 29.3594 75.1394C29.9504 75.3801 30.6449 75.4998 31.4414 75.4998C32.2442 75.4997 32.9297 75.3808 33.498 75.1433C34.0697 74.9026 34.5067 74.5654 34.8086 74.1316C35.1136 73.6946 35.2683 73.1781 35.2715 72.5828C35.2682 72.1776 35.1926 71.818 35.0449 71.5046C34.9004 71.1913 34.6958 70.9193 34.4326 70.6882C34.1693 70.4571 33.8576 70.2616 33.498 70.1033C33.1385 69.945 32.7436 69.8184 32.3135 69.7234L31.4258 69.5144C31.2109 69.4669 31.0086 69.4099 30.8193 69.3435C30.6299 69.2738 30.4628 69.1922 30.3184 69.1003C30.174 69.0054 30.06 68.8931 29.9766 68.7634C29.8963 68.6336 29.8598 68.4815 29.8662 68.3074C29.8663 68.0985 29.9259 67.9114 30.0479 67.7468C30.1731 67.5822 30.3536 67.4539 30.5879 67.3621C30.8222 67.2671 31.11 67.2195 31.4502 67.2195C31.9512 67.2195 32.3484 67.3257 32.6406 67.5378C32.9328 67.75 33.0982 68.0483 33.1367 68.4314H35.1357C35.1261 67.8519 34.9691 67.3413 34.6641 66.9011C34.359 66.4611 33.9318 66.1178 33.3828 65.8708C32.8368 65.6238 32.1971 65.4998 31.4648 65.4998ZM19 65.6326V75.3621H21.0859V72.2078H22.8398C23.5977 72.2077 24.2432 72.0692 24.7764 71.7937C25.3125 71.5182 25.7223 71.1342 26.0049 70.6404C26.2874 70.1465 26.4286 69.5762 26.4287 68.9304C26.4287 68.2844 26.2901 67.7135 26.0107 67.2195C25.7346 66.7224 25.3322 66.3351 24.8057 66.0564C24.279 65.7746 23.6409 65.6326 22.8926 65.6326H19ZM36.6748 65.6326V75.3621H40.1719C41.1737 75.3621 42.0346 75.1674 42.7539 74.7781C43.4766 74.3885 44.0316 73.8288 44.417 73.1003C44.8054 72.3721 45 71.5011 45 70.488C45 69.4781 44.8055 68.6096 44.417 67.8845C44.0316 67.1595 43.4798 66.6039 42.7637 66.2175C42.0475 65.8281 41.1934 65.6326 40.2012 65.6326H36.6748ZM40.0908 67.3953C40.7072 67.3953 41.2259 67.5032 41.6465 67.7185C42.0671 67.9338 42.3837 68.2694 42.5957 68.7253C42.8108 69.1813 42.9179 69.7693 42.918 70.488C42.9179 71.213 42.8108 71.8053 42.5957 72.2644C42.3837 72.7204 42.0655 73.0586 41.6416 73.2771C41.2209 73.4924 40.7015 73.6003 40.085 73.6003H38.7607V67.3953H40.0908ZM22.4922 67.3142C22.8969 67.3142 23.2317 67.3831 23.4951 67.5193C23.7582 67.6522 23.9546 67.8401 24.083 68.0837C24.2146 68.3244 24.2803 68.6074 24.2803 68.9304C24.2802 69.25 24.2145 69.5332 24.083 69.78C23.9545 70.0238 23.7584 70.2159 23.4951 70.3552C23.2351 70.4913 22.9042 70.5593 22.5029 70.5593H21.0859V67.3142H22.4922Z" fill="white"/>
<g filter="url(#filter0_d_18_711)">
<path d="M63.9995 19.2047H47.6267C46.4621 19.2047 45.5181 18.2606 45.5181 17.096V2.22925L63.9995 19.2047Z" fill="#E4E7EC"/>
</g>
<defs>
<filter id="filter0_d_18_711" x="39.1921" y="0.120604" width="26.916" height="25.4099" filterUnits="userSpaceOnUse" color-interpolation-filters="sRGB">
<feFlood flood-opacity="0" result="BackgroundImageFix"/>
<feColorMatrix in="SourceAlpha" type="matrix" values="0 0 0 0 0 0 0 0 0 0 0 0 0 0 0 0 0 0 127 0" result="hardAlpha"/>
<feOffset dx="-2.10864" dy="2.10864"/>
<feGaussianBlur stdDeviation="2.10864"/>
<feComposite in2="hardAlpha" operator="out"/>
<feColorMatrix type="matrix" values="0 0 0 0 0 0 0 0 0 0 0 0 0 0 0 0 0 0 0.2 0"/>
<feBlend mode="normal" in2="BackgroundImageFix" result="effect1_dropShadow_18_711"/>
<feBlend mode="normal" in="SourceGraphic" in2="effect1_dropShadow_18_711" result="shape"/>
</filter>
</defs>
</svg>
