<svg width="67" height="89" viewBox="0 0 67 89" fill="none" xmlns="http://www.w3.org/2000/svg">
<path d="M64 19.9852V79.909C64 84.5673 60.2237 88.3436 55.5654 88.3436H8.43457C3.77629 88.3436 0 84.5673 0 79.909V11.4444C0 6.78607 3.77629 3.00977 8.43458 3.00977H45.5185L64 19.9852Z" fill="#008201"/>
<path d="M46 31C47.6569 31 49 32.3431 49 34V45C49 46.6569 47.6569 48 46 48H18C16.3431 48 15 46.6569 15 45V34C15 32.3431 16.3431 31 18 31H46ZM17 43V46H23V43H17ZM25 43V46H31V43H25ZM33 43V46H39V43H33ZM41 43V46H47V43H41ZM17 38V41H23V38H17ZM25 38V41H31V38H25ZM33 38V41H39V38H33ZM41 38V41H47V38H41ZM17 33V36H23V33H17ZM25 33V36H31V33H25ZM33 33V36H39V33H33ZM41 33V36H47V33H41Z" fill="white"/>
<path d="M52 62C54.7614 62 57 64.2386 57 67V75C57 77.7614 54.7614 80 52 80H12C9.23858 80 7 77.7614 7 75V67C7 64.2386 9.23858 62 12 62H52ZM41.0967 66C40.3589 66 39.6998 66.1241 39.1201 66.3711C38.5405 66.6181 38.0837 66.9613 37.751 67.4014C37.4217 67.8415 37.2585 68.3564 37.2617 68.9453C37.2584 69.6642 37.504 70.2358 37.998 70.6602C38.4922 71.0845 39.1664 71.3972 40.0195 71.5967L41.1201 71.8623C41.4889 71.9478 41.8011 72.043 42.0547 72.1475C42.3114 72.2519 42.506 72.3786 42.6377 72.5273C42.7727 72.6762 42.8398 72.8606 42.8398 73.0791C42.8397 73.313 42.766 73.5199 42.6182 73.7002C42.4699 73.8807 42.2604 74.0227 41.9902 74.124C41.7236 74.2252 41.4089 74.2754 41.0469 74.2754C40.6781 74.2754 40.3468 74.2218 40.0537 74.1143C39.7639 74.0034 39.532 73.8394 39.3574 73.624C39.1863 73.4056 39.0885 73.1336 39.0654 72.8076H36.9951C37.0116 73.5074 37.1875 74.0953 37.5234 74.5703C37.8627 75.0421 38.3338 75.399 38.9365 75.6396C39.5426 75.8803 40.2544 76 41.0713 76C41.8948 76 42.5986 75.8811 43.1816 75.6436C43.7678 75.4029 44.2158 75.0656 44.5254 74.6318C44.8383 74.1948 44.9967 73.6784 45 73.083C44.9967 72.6779 44.919 72.3183 44.7676 72.0049C44.6194 71.6916 44.4105 71.4186 44.1406 71.1875C43.8706 70.9564 43.5505 70.7618 43.1816 70.6035C42.8128 70.4452 42.4072 70.3186 41.9658 70.2236L41.0566 70.0146C40.8362 69.9672 40.6288 69.9092 40.4346 69.8428C40.2402 69.7731 40.0682 69.6924 39.9199 69.6006C39.7719 69.5056 39.6549 69.3934 39.5693 69.2637C39.4871 69.1339 39.4495 68.9817 39.4561 68.8076C39.4561 68.5987 39.5185 68.4117 39.6436 68.2471C39.7719 68.0826 39.9561 67.9541 40.1963 67.8623C40.4367 67.7673 40.732 67.7197 41.0811 67.7197C41.5949 67.7197 42.002 67.8259 42.3018 68.0381C42.6015 68.2503 42.771 68.5485 42.8105 68.9316H44.8613C44.8514 68.3521 44.6899 67.8416 44.377 67.4014C44.0641 66.9613 43.6256 66.6181 43.0625 66.3711C42.5027 66.1242 41.8474 66.0001 41.0967 66ZM19.0596 66.1328L22.168 70.998L19 75.8623H21.4512L23.5264 72.542H23.6045L25.6807 75.8623H28.1416L24.9844 70.998L28.0723 66.1328H25.6562L23.6045 69.4492H23.5264L21.4854 66.1328H19.0596ZM29.4258 66.1328V75.8623H35.9043V74.166H31.5654V66.1328H29.4258Z" fill="white"/>
<g filter="url(#filter0_d_18_242)">
<path d="M63.9995 19.9852H47.6267C46.4621 19.9852 45.5181 19.0411 45.5181 17.8766V3.00977L63.9995 19.9852Z" fill="#E4E7EC"/>
</g>
<defs>
<filter id="filter0_d_18_242" x="39.1921" y="0.901122" width="26.916" height="25.41" filterUnits="userSpaceOnUse" color-interpolation-filters="sRGB">
<feFlood flood-opacity="0" result="BackgroundImageFix"/>
<feColorMatrix in="SourceAlpha" type="matrix" values="0 0 0 0 0 0 0 0 0 0 0 0 0 0 0 0 0 0 127 0" result="hardAlpha"/>
<feOffset dx="-2.10864" dy="2.10864"/>
<feGaussianBlur stdDeviation="2.10864"/>
<feComposite in2="hardAlpha" operator="out"/>
<feColorMatrix type="matrix" values="0 0 0 0 0 0 0 0 0 0 0 0 0 0 0 0 0 0 0.2 0"/>
<feBlend mode="normal" in2="BackgroundImageFix" result="effect1_dropShadow_18_242"/>
<feBlend mode="normal" in="SourceGraphic" in2="effect1_dropShadow_18_242" result="shape"/>
</filter>
</defs>
</svg>
