<svg viewBox="0 0 67 89" fill="none" xmlns="http://www.w3.org/2000/svg">
<path d="M64 19.7791V79.7029C64 84.3612 60.2237 88.1375 55.5654 88.1375H8.43457C3.77629 88.1375 0 84.3612 0 79.7029V11.2383C0 6.58001 3.77629 2.80371 8.43458 2.80371H45.5185L64 19.7791Z" fill="#FF1200"/>
<path d="M26.6687 27.9157C25.907 27.9157 25.3127 28.0312 24.8859 28.2622C24.459 28.4932 24.16 28.8531 23.9892 29.3423C23.825 29.8247 23.743 30.4432 23.743 31.1974V34.9073C23.743 35.4305 23.6675 35.9163 23.5165 36.3648C23.3654 36.8064 23.0862 37.1902 22.6791 37.5164C22.2719 37.8425 21.6907 38.0974 20.9355 38.2809C20.8684 38.2972 20.7993 38.3122 20.7286 38.3271V38.6725C20.7993 38.6874 20.8683 38.7028 20.9355 38.7191C21.6907 38.8958 22.2719 39.1507 22.6791 39.4836C23.0862 39.8098 23.3654 40.1969 23.5165 40.6454C23.6675 41.087 23.743 41.5695 23.743 42.0927V45.8026C23.743 46.55 23.825 47.1651 23.9892 47.6475C24.16 48.1367 24.459 48.4967 24.8859 48.7277C25.3127 48.9654 25.907 49.0843 26.6687 49.0843V51.5C25.6968 51.5 24.853 51.4047 24.1372 51.2145C23.4214 51.0242 22.8301 50.7151 22.3638 50.2871C21.8976 49.859 21.5497 49.2883 21.3199 48.5749C21.0966 47.8683 20.985 46.9949 20.985 45.9553V43.0201C20.9849 41.933 20.7646 41.1515 20.3246 40.6759C19.8846 40.2003 19.1097 39.9625 18 39.9625V37.0273C19.1097 37.0273 19.8846 36.7929 20.3246 36.3241C20.7646 35.8485 20.9849 35.0636 20.985 33.9698V31.0443C20.985 30.0048 21.0966 29.1317 21.3199 28.4251C21.5497 27.7117 21.8976 27.141 22.3638 26.7129C22.8301 26.2849 23.4214 25.9758 24.1372 25.7855C24.853 25.5953 25.6968 25.5 26.6687 25.5V27.9157Z" fill="white"/>
<path d="M37.3313 25.5C38.3031 25.5 39.147 25.5953 39.8628 25.7855C40.5786 25.9758 41.1696 26.2849 41.6358 26.7129C42.1021 27.141 42.447 27.7116 42.6703 28.4251C42.9002 29.1317 43.015 30.0048 43.015 31.0443V33.9698C43.0151 35.0636 43.235 35.8485 43.675 36.3241C44.115 36.7929 44.8902 37.0273 46 37.0273V39.9625C44.8902 39.9625 44.115 40.2003 43.675 40.6759C43.235 41.1515 43.0151 41.933 43.015 43.0201V45.9553C43.015 46.9949 42.9002 47.8683 42.6703 48.5749C42.447 49.2883 42.1021 49.859 41.6358 50.2871C41.1696 50.7151 40.5786 51.0242 39.8628 51.2145C39.147 51.4047 38.3031 51.5 37.3313 51.5V49.0843C38.093 49.0843 38.6873 48.9655 39.1141 48.7277C39.5409 48.4967 39.8364 48.1367 40.0006 47.6475C40.1714 47.1651 40.257 46.55 40.257 45.8026V42.0927C40.257 41.5695 40.3325 41.087 40.4835 40.6454C40.6345 40.197 40.9135 39.8097 41.3206 39.4836C41.7277 39.1507 42.309 38.8958 43.0641 38.7191C43.1313 38.7028 43.2004 38.6874 43.271 38.6725V38.3271C43.2004 38.3122 43.1313 38.2972 43.0641 38.2809C42.309 38.0974 41.7277 37.8425 41.3206 37.5164C40.9135 37.1903 40.6345 36.8064 40.4835 36.3648C40.3325 35.9163 40.257 35.4305 40.257 34.9073V31.1974C40.257 30.4432 40.1714 29.8247 40.0006 29.3423C39.8364 28.8532 39.5409 28.4932 39.1141 28.2622C38.6873 28.0312 38.093 27.9157 37.3313 27.9157V25.5Z" fill="white"/>
<path d="M31.9939 43.2853C32.5324 43.2853 32.9955 43.4856 33.3829 43.8865C33.7703 44.2806 33.964 44.7564 33.964 45.3135C33.964 45.6872 33.8719 46.0303 33.688 46.3428C33.5107 46.6485 33.2744 46.893 32.979 47.0765C32.6835 47.2599 32.3551 47.3518 31.9939 47.3518C31.4554 47.3518 30.9923 47.1548 30.6049 46.7608C30.2174 46.3599 30.0238 45.8774 30.0238 45.3135C30.0238 44.7563 30.2174 44.2806 30.6049 43.8865C30.9923 43.4856 31.4554 43.2853 31.9939 43.2853Z" fill="white"/>
<path d="M31.9939 31.8904C32.5324 31.8905 32.9955 32.0908 33.3829 32.4916C33.7704 32.8857 33.964 33.3615 33.964 33.9186C33.964 34.2923 33.8719 34.6354 33.688 34.948C33.5107 35.2537 33.2745 35.4985 32.979 35.6819C32.6835 35.8654 32.3551 35.9569 31.9939 35.957C31.4554 35.957 30.9923 35.7566 30.6049 35.3558C30.2174 34.9549 30.0238 34.4758 30.0238 33.9186C30.0238 33.3615 30.2174 32.8857 30.6049 32.4916C30.9923 32.0908 31.4554 31.8904 31.9939 31.8904Z" fill="white"/>
<path d="M52 61.5059C54.7614 61.5059 57 63.7444 57 66.5059V74.5059C57 77.2673 54.7614 79.5059 52 79.5059H12C9.23858 79.5059 7 77.2673 7 74.5059V66.5059C7 63.7444 9.23858 61.5059 12 61.5059H52ZM17.876 65.5V72.3789C17.876 72.6936 17.8257 72.9587 17.7246 73.1738C17.6235 73.3889 17.4746 73.5527 17.2793 73.665C17.0877 73.774 16.8527 73.829 16.5742 73.8291C16.3093 73.8291 16.0781 73.7808 15.8828 73.6846C15.6912 73.5851 15.5393 73.4436 15.4277 73.2607C15.3196 73.0745 15.2619 72.8509 15.2549 72.5908H13C12.9965 73.2459 13.1491 73.7901 13.4561 74.2236C13.7629 74.6538 14.1772 74.9756 14.7002 75.1875C15.2269 75.3962 15.8137 75.5 16.459 75.5C17.1843 75.4999 17.8207 75.3728 18.3682 75.1191C18.9155 74.8655 19.3425 74.5047 19.6494 74.0361C19.9598 73.5673 20.1152 73.0147 20.1152 72.3789V65.5H17.876ZM25.1064 65.5L21.4082 75.3652H23.8359L24.6299 73.1152H28.499L29.293 75.3652H31.7207L28.0264 65.5H25.1064ZM31.0908 65.5L34.79 75.3652H37.71L41.4033 65.5H38.8916L36.2969 72.9951H36.1973L33.6074 65.5H31.0908ZM44.3867 65.5L40.6875 75.3652H43.1152L43.9102 73.1152H47.7783L48.5723 75.3652H51L47.3066 65.5H44.3867ZM26.6084 67.7539L27.9248 71.4873H25.2061L26.5244 67.7539H26.6084ZM45.8887 67.7539L47.2051 71.4873H44.4854L45.8047 67.7539H45.8887Z" fill="white"/>
<g filter="url(#filter0_d_18_753)">
<path d="M63.9995 19.7791H47.6267C46.4621 19.7791 45.5181 18.8351 45.5181 17.6705V2.80371L63.9995 19.7791Z" fill="#E4E7EC"/>
</g>
<defs>
<filter id="filter0_d_18_753" x="39.1921" y="0.695067" width="26.916" height="25.4099" filterUnits="userSpaceOnUse" color-interpolation-filters="sRGB">
<feFlood flood-opacity="0" result="BackgroundImageFix"/>
<feColorMatrix in="SourceAlpha" type="matrix" values="0 0 0 0 0 0 0 0 0 0 0 0 0 0 0 0 0 0 127 0" result="hardAlpha"/>
<feOffset dx="-2.10864" dy="2.10864"/>
<feGaussianBlur stdDeviation="2.10864"/>
<feComposite in2="hardAlpha" operator="out"/>
<feColorMatrix type="matrix" values="0 0 0 0 0 0 0 0 0 0 0 0 0 0 0 0 0 0 0.2 0"/>
<feBlend mode="normal" in2="BackgroundImageFix" result="effect1_dropShadow_18_753"/>
<feBlend mode="normal" in="SourceGraphic" in2="effect1_dropShadow_18_753" result="shape"/>
</filter>
</defs>
</svg>
