<svg height="89" viewBox="0 0 67 89" fill="none" xmlns="http://www.w3.org/2000/svg">
<path d="M64 19.9852V79.909C64 84.5673 60.2237 88.3436 55.5654 88.3436H8.43457C3.77629 88.3436 0 84.5673 0 79.909V11.4444C0 6.78607 3.77629 3.00977 8.43458 3.00977H45.5185L64 19.9852Z" fill="#FEA600"/>
<path d="M21.3248 33.369C21.859 32.8766 22.6777 32.8727 23.217 33.3832C23.7561 33.8938 23.8247 34.7377 23.3972 35.3312L23.3052 35.4463L18.8285 40.5002L23.3052 45.5542C23.8314 46.1489 23.7917 47.0717 23.217 47.6163C22.6419 48.1607 21.7486 48.1212 21.2218 47.5269L15 40.5002L21.2218 33.4736L21.3248 33.369Z" fill="white"/>
<path d="M39.783 33.3832C40.3223 32.8727 41.141 32.8766 41.6752 33.369L41.7782 33.4736L48 40.5002L41.7782 47.5269C41.2514 48.1212 40.3581 48.1607 39.783 47.6163C39.2083 47.0717 39.1686 46.1489 39.6948 45.5542L44.1715 40.5002L39.6948 35.4463L39.6028 35.3312C39.1753 34.7377 39.2439 33.8938 39.783 33.3832Z" fill="white"/>
<path d="M33.651 33.87C34.0697 33.2702 34.8679 33.0836 35.5009 33.4612C36.1341 33.8392 36.3771 34.6476 36.0838 35.3227L36.0185 35.4558L29.4281 47.2598C29.0381 47.9582 28.1736 48.1973 27.4982 47.7941C26.8231 47.3908 26.5918 46.4978 26.9815 45.7995L33.5719 33.9955L33.651 33.87Z" fill="white"/>
<path d="M52 62C54.7614 62 57 64.2386 57 67V75C57 77.7614 54.7614 80 52 80H12C9.23858 80 7 77.7614 7 75V67C7 64.2386 9.23858 62 12 62H52ZM17.0605 66L20.2061 71L17 76H19.4814L21.582 72.5869H21.6611L23.7617 76H26.2529L23.0576 71L26.1826 66H23.7373L21.6611 69.4082H21.582L19.5156 66H17.0605ZM27.5537 66V76H29.6543V69.4668H29.7393L32.3906 75.9512H33.8213L36.4727 69.4912H36.5576V76H38.6582V66H35.9873L33.166 72.7188H33.0459L30.2246 66H27.5537ZM40.4424 66V76H47V74.2568H42.6084V66H40.4424Z" fill="white"/>
<g filter="url(#filter0_d_18_60)">
<path d="M63.9995 19.9852H47.6267C46.4621 19.9852 45.5181 19.0411 45.5181 17.8766V3.00977L63.9995 19.9852Z" fill="#E4E7EC"/>
</g>
<defs>
<filter id="filter0_d_18_60" x="39.1921" y="0.901122" width="26.916" height="25.41" filterUnits="userSpaceOnUse" color-interpolation-filters="sRGB">
<feFlood flood-opacity="0" result="BackgroundImageFix"/>
<feColorMatrix in="SourceAlpha" type="matrix" values="0 0 0 0 0 0 0 0 0 0 0 0 0 0 0 0 0 0 127 0" result="hardAlpha"/>
<feOffset dx="-2.10864" dy="2.10864"/>
<feGaussianBlur stdDeviation="2.10864"/>
<feComposite in2="hardAlpha" operator="out"/>
<feColorMatrix type="matrix" values="0 0 0 0 0 0 0 0 0 0 0 0 0 0 0 0 0 0 0.2 0"/>
<feBlend mode="normal" in2="BackgroundImageFix" result="effect1_dropShadow_18_60"/>
<feBlend mode="normal" in="SourceGraphic" in2="effect1_dropShadow_18_60" result="shape"/>
</filter>
</defs>
</svg>
