<svg viewBox="0 0 67 89" fill="none" xmlns="http://www.w3.org/2000/svg">
<path d="M64 19.9832V79.9071C64 84.5653 60.2237 88.3416 55.5654 88.3416H8.43457C3.77629 88.3416 0 84.5653 0 79.9071V11.4424C0 6.78411 3.77629 3.00781 8.43458 3.00781H45.5185L64 19.9832Z" fill="#465167"/>
<path fill-rule="evenodd" clip-rule="evenodd" d="M32 32.3745C34.8309 32.3745 37.1255 34.6691 37.1255 37.5C37.1255 40.3309 34.8309 42.6255 32 42.6255C29.1691 42.6255 26.8745 40.3309 26.8745 37.5C26.8745 34.6691 29.1691 32.3745 32 32.3745ZM32 33.8482C29.983 33.8482 28.3482 35.483 28.3482 37.5C28.3482 39.517 29.983 41.1518 32 41.1518C34.017 41.1518 35.6518 39.517 35.6518 37.5C35.6518 35.483 34.017 33.8482 32 33.8482Z" fill="white"/>
<path fill-rule="evenodd" clip-rule="evenodd" d="M34.9445 27.5778C35.641 27.7842 36.3074 28.0612 36.9341 28.4017L40.1779 25.8789L43.6211 29.3221L41.0976 32.5659C41.4382 33.1926 41.715 33.859 41.9215 34.5555L46 35.065V39.935L41.9215 40.4445C41.7151 41.141 41.4381 41.8074 41.0976 42.4341L43.6211 45.6779L40.1772 49.1211L36.9341 46.5976C36.3074 46.9381 35.641 47.2151 34.9445 47.4215L34.435 51.5H29.565L29.0555 47.4215C28.359 47.215 27.6926 46.9382 27.0659 46.5976L23.8221 49.1211L20.3789 45.6779L22.9017 42.4341C22.5612 41.8074 22.2842 41.141 22.0778 40.4445L18 39.935V35.065L22.0778 34.5555C22.2842 33.859 22.5611 33.1926 22.9017 32.5659L20.3789 29.3221L23.8221 25.8789L27.0659 28.4017C27.6926 28.0611 28.359 27.7842 29.0555 27.5778L29.565 23.5H34.435L34.9445 27.5778ZM30.3982 28.7169L29.4736 28.9911C28.8761 29.1682 28.3055 29.405 27.7696 29.6962L26.922 30.1568L23.9437 27.8405L22.3405 29.4437L24.6568 32.422L24.1962 33.2696C23.905 33.8055 23.6682 34.3761 23.4911 34.9736L23.2169 35.8982L19.4737 36.366V38.6333L23.2169 39.101L23.4911 40.0257C23.6681 40.6233 23.9049 41.1942 24.1962 41.7304L24.6568 42.5773L22.3405 45.5556L23.9437 47.1588L26.922 44.8425L27.7696 45.303C28.2386 45.5579 28.7342 45.7711 29.2512 45.9391L29.4736 46.0089L30.3982 46.2824L30.8667 50.0263H33.1333L33.601 46.2824L34.5257 46.0089C35.1234 45.8318 35.6942 45.5944 36.2304 45.303L37.0773 44.8425L40.0549 47.1588L41.6588 45.5556L39.3425 42.5773L39.803 41.7304C40.0944 41.1942 40.3318 40.6234 40.5089 40.0257L40.7824 39.101L44.5263 38.6333V36.366L40.7824 35.8982L40.5089 34.9736C40.3318 34.3759 40.0943 33.8055 39.803 33.2696L39.3425 32.422L41.6588 29.4437L40.0556 27.8405L37.0773 30.1568L36.2304 29.6962C35.6942 29.4049 35.1233 29.1681 34.5257 28.9911L33.601 28.7169L33.1333 24.9737H30.8667L30.3982 28.7169Z" fill="white"/>
<path d="M52 62.5C54.7614 62.5 57 64.7386 57 67.5V75.5C57 78.2614 54.7614 80.5 52 80.5H12C9.23858 80.5 7 78.2614 7 75.5V67.5C7 64.7386 9.23858 62.5 12 62.5H52ZM18.5996 66.5V76.5H23.0879C23.8745 76.5 24.5373 76.3795 25.0742 76.1387C25.611 75.8978 26.0165 75.5704 26.29 75.1572C26.567 74.7407 26.706 74.2668 26.7061 73.7363C26.706 73.245 26.5967 72.8215 26.3779 72.4668C26.159 72.1088 25.8728 71.8304 25.5205 71.6318C25.1716 71.4333 24.7967 71.3258 24.3965 71.3096V71.2119C24.7625 71.1338 25.0882 71.002 25.3721 70.8164C25.6592 70.6277 25.8847 70.3865 26.0488 70.0938C26.2129 69.7976 26.2949 69.4539 26.2949 69.0635C26.2949 68.5623 26.1651 68.1194 25.9053 67.7354C25.6454 67.3482 25.2574 67.0452 24.7412 66.8271C24.2248 66.6091 23.5795 66.5 22.8066 66.5H18.5996ZM31.209 66.5L27.582 76.5H29.9629L30.7422 74.2197H34.5361L35.3145 76.5H37.6953L34.0732 66.5H31.209ZM37.2754 66.5V68.2432H40.4932V76.5H42.6885V68.2432H45.9053V66.5H37.2754ZM22.6826 72.1152C23.0383 72.1152 23.345 72.1755 23.6016 72.2959C23.8615 72.4163 24.0619 72.5824 24.2021 72.7939C24.3423 73.0055 24.4121 73.2498 24.4121 73.5264C24.4121 73.9038 24.27 74.2067 23.9863 74.4346C23.7024 74.659 23.2506 74.7715 22.6318 74.7715H20.8203V72.1152H22.6826ZM32.6826 68.7852L33.9736 72.5693H31.3066L32.5996 68.7852H32.6826ZM22.5088 68.209C23.0012 68.209 23.3817 68.3197 23.6484 68.541C23.9184 68.7623 24.0536 69.054 24.0537 69.415C24.0537 69.6786 23.9829 69.905 23.8428 70.0938C23.706 70.2824 23.5176 70.4291 23.2783 70.5332C23.0425 70.634 22.7719 70.6845 22.4678 70.6846H20.8203V68.209H22.5088Z" fill="white"/>
<g filter="url(#filter0_d_18_459)">
<path d="M63.9995 19.9832H47.6267C46.4621 19.9832 45.5181 19.0392 45.5181 17.8746V3.00781L63.9995 19.9832Z" fill="#E4E7EC"/>
</g>
<defs>
<filter id="filter0_d_18_459" x="39.1921" y="0.899168" width="26.916" height="25.4099" filterUnits="userSpaceOnUse" color-interpolation-filters="sRGB">
<feFlood flood-opacity="0" result="BackgroundImageFix"/>
<feColorMatrix in="SourceAlpha" type="matrix" values="0 0 0 0 0 0 0 0 0 0 0 0 0 0 0 0 0 0 127 0" result="hardAlpha"/>
<feOffset dx="-2.10864" dy="2.10864"/>
<feGaussianBlur stdDeviation="2.10864"/>
<feComposite in2="hardAlpha" operator="out"/>
<feColorMatrix type="matrix" values="0 0 0 0 0 0 0 0 0 0 0 0 0 0 0 0 0 0 0.2 0"/>
<feBlend mode="normal" in2="BackgroundImageFix" result="effect1_dropShadow_18_459"/>
<feBlend mode="normal" in="SourceGraphic" in2="effect1_dropShadow_18_459" result="shape"/>
</filter>
</defs>
</svg>
