<svg height="88" viewBox="0 0 67 88" fill="none" xmlns="http://www.w3.org/2000/svg">
<path d="M64 19.2047V79.1285C64 83.7868 60.2237 87.5631 55.5654 87.5631H8.43457C3.77629 87.5631 0 83.7868 0 79.1285V10.6638C0 6.00555 3.77629 2.22925 8.43458 2.22925H45.5185L64 19.2047Z" fill="#155EEF"/>
<path d="M52 61.6462C54.7614 61.6462 57 63.8848 57 66.6462V74.6462C57 77.4077 54.7614 79.6462 52 79.6462H12C9.23858 79.6462 7 77.4077 7 74.6462V66.6462C7 63.8848 9.23858 61.6462 12 61.6462H52ZM22.0635 65.4998C21.3325 65.4998 20.6798 65.6239 20.1055 65.8708C19.5312 66.1178 19.0786 66.4611 18.749 66.9011C18.4228 67.3412 18.2605 67.8562 18.2637 68.4451C18.2604 69.1639 18.5047 69.7355 18.9941 70.1599C19.4837 70.5842 20.1509 70.8969 20.9961 71.0964L22.0879 71.3621C22.4533 71.4476 22.7624 71.5427 23.0137 71.6472C23.2679 71.7516 23.4603 71.8784 23.5908 72.0271C23.7246 72.176 23.791 72.3603 23.791 72.5789C23.7909 72.813 23.718 73.0205 23.5713 73.2009C23.4244 73.3813 23.2167 73.5225 22.9492 73.6238C22.685 73.725 22.3734 73.7751 22.0146 73.7751C21.6493 73.7751 21.3206 73.7216 21.0303 73.614C20.7435 73.5032 20.5137 73.3398 20.3408 73.1248C20.1713 72.9064 20.0747 72.6342 20.0518 72.3083H18C18.0164 73.0079 18.1908 73.5952 18.5234 74.0701C18.8596 74.5419 19.3266 74.8987 19.9238 75.1394C20.5244 75.3801 21.2297 75.4998 22.0391 75.4998C22.855 75.4997 23.5522 75.3808 24.1299 75.1433C24.7106 74.9026 25.1542 74.5653 25.4609 74.1316C25.7709 73.6946 25.9284 73.1781 25.9316 72.5828C25.9283 72.1776 25.8512 71.818 25.7012 71.5046C25.5544 71.1913 25.3465 70.9193 25.0791 70.6882C24.8116 70.4571 24.4953 70.2616 24.1299 70.1033C23.7645 69.945 23.3629 69.8184 22.9258 69.7234L22.0244 69.5144C21.8061 69.467 21.6005 69.4099 21.4082 69.3435C21.2156 69.2738 21.0453 69.1922 20.8984 69.1003C20.7517 69.0054 20.6356 68.8932 20.5508 68.7634C20.4693 68.6336 20.432 68.4815 20.4385 68.3074C20.4385 68.0985 20.5001 67.9114 20.624 67.7468C20.7512 67.5823 20.9339 67.4539 21.1719 67.3621C21.4101 67.2671 21.7029 67.2195 22.0488 67.2195C22.5577 67.2195 22.9609 67.3258 23.2578 67.5378C23.5548 67.75 23.7235 68.0482 23.7627 68.4314H25.7939C25.7841 67.8519 25.6245 67.3413 25.3145 66.9011C25.0044 66.4611 24.5696 66.1178 24.0117 65.8708C23.457 65.6239 22.8074 65.4998 22.0635 65.4998ZM41.6182 65.4998C40.9557 65.4998 40.3403 65.6128 39.7725 65.8376C39.2047 66.0625 38.7068 66.3904 38.2793 66.821C37.8519 67.2517 37.5195 67.7776 37.2812 68.3982C37.0463 69.0157 36.9287 69.719 36.9287 70.5076C36.9288 71.5335 37.1266 72.4204 37.5215 73.1677C37.9196 73.9117 38.4742 74.4861 39.1855 74.8914C39.8969 75.2935 40.7223 75.4958 41.6621 75.4958C42.5042 75.4958 43.2525 75.3311 43.9053 75.0017C44.5579 74.6692 45.0704 74.1968 45.4424 73.5857C45.8143 72.9714 45.9999 72.2364 46 71.3816V70.156H41.8047V71.7039H43.957C43.9484 72.0927 43.8581 72.4316 43.6846 72.7205C43.5051 73.0244 43.2439 73.2606 42.9014 73.4285C42.5619 73.5932 42.1517 73.6765 41.6719 73.6765C41.1434 73.6764 40.6851 73.5523 40.2969 73.3054C39.9085 73.0553 39.6077 72.6925 39.3955 72.2175C39.1835 71.7426 39.0772 71.1656 39.0771 70.488C39.0772 69.8105 39.1851 69.2369 39.4004 68.7683C39.6157 68.2967 39.916 67.9372 40.3008 67.6902C40.6892 67.4432 41.1409 67.3191 41.6533 67.3191C41.927 67.3191 42.1765 67.3523 42.4014 67.4187C42.6298 67.4852 42.8325 67.583 43.0088 67.7097C43.1882 67.8332 43.3409 67.9844 43.4648 68.1648C43.5888 68.3421 43.6844 68.547 43.7529 68.7781H45.9072C45.8387 68.297 45.6837 67.8566 45.4424 67.4578C45.2009 67.0555 44.8887 66.7081 44.5068 66.4167C44.1283 66.1255 43.6945 65.9003 43.2051 65.7419C42.7155 65.5804 42.1861 65.4998 41.6182 65.4998ZM26.8145 65.6326L30.2744 75.3621H33.0068L36.4639 65.6326H34.1133L31.6846 73.0251H31.5918L29.1689 65.6326H26.8145Z" fill="white"/>
<path fill-rule="evenodd" clip-rule="evenodd" d="M48 32.6062L44.9446 35.7123L42.3468 33.0714H38.5455C39.6982 33.6752 40.7638 34.4595 41.6977 35.4089C43.9234 37.6715 45.2334 40.6904 45.3864 43.8715C46.6066 44.1831 47.5101 45.3058 47.5101 46.6429C47.5101 48.2208 46.2518 49.5 44.6996 49.5C43.1474 49.5 41.8891 48.2208 41.8891 46.6429C41.8891 45.3179 42.7764 44.2038 43.9798 43.8806C43.8301 41.0753 42.6683 38.4158 40.7041 36.4189C39.2253 34.9156 37.377 33.8745 35.3761 33.3867C34.9696 34.4557 33.95 35.2143 32.755 35.2143C31.5528 35.2143 30.5279 34.4465 30.1264 33.3672C30.1288 33.3737 30.1308 33.3803 30.1333 33.3867C28.1327 33.8746 26.2846 34.9158 24.806 36.4189C22.8417 38.4158 21.6793 41.0753 21.5296 43.8806C22.7333 44.2036 23.621 45.3176 23.621 46.6429C23.621 48.2208 22.3627 49.5 20.8105 49.5C19.2583 49.5 18 48.2208 18 46.6429C18 45.306 18.9031 44.1833 20.123 43.8715C20.276 40.6904 21.5867 37.6715 23.8124 35.4089C24.7462 34.4596 25.8115 33.6752 26.9639 33.0714H23.6532L21.0554 35.7123L18 32.6062L21.0554 29.5L23.1633 31.6429H30.0331C30.3451 30.4105 31.4455 29.5 32.755 29.5C34.0646 29.5 35.165 30.4105 35.477 31.6429H42.8367L44.9446 29.5L48 32.6062ZM20.8105 45.2143C20.0344 45.2143 19.4052 45.8539 19.4052 46.6429C19.4052 47.4318 20.0344 48.0714 20.8105 48.0714C21.5866 48.0714 22.2157 47.4318 22.2157 46.6429C22.2157 45.8539 21.5866 45.2143 20.8105 45.2143ZM44.6996 45.2143C43.9235 45.2143 43.2944 45.8539 43.2944 46.6429C43.2944 47.4318 43.9235 48.0714 44.6996 48.0714C45.4757 48.0714 46.1048 47.4318 46.1048 46.6429C46.1048 45.8539 45.4757 45.2143 44.6996 45.2143ZM32.755 30.9286C31.979 30.9286 31.3498 31.5682 31.3498 32.3571C31.3498 33.1461 31.979 33.7857 32.755 33.7857C33.5311 33.7857 34.1603 33.1461 34.1603 32.3571C34.1603 31.5682 33.5311 30.9286 32.755 30.9286ZM19.9878 32.6062L21.0554 33.6915L22.1231 32.6062L21.0554 31.5201L19.9878 32.6062ZM43.8769 32.6062L44.9446 33.6915L46.0122 32.6062L44.9446 31.5201L43.8769 32.6062Z" fill="white"/>
<g filter="url(#filter0_d_18_936)">
<path d="M63.9995 19.2047H47.6267C46.4621 19.2047 45.5181 18.2606 45.5181 17.096V2.22925L63.9995 19.2047Z" fill="#E4E7EC"/>
</g>
<defs>
<filter id="filter0_d_18_936" x="39.1921" y="0.120604" width="26.916" height="25.4099" filterUnits="userSpaceOnUse" color-interpolation-filters="sRGB">
<feFlood flood-opacity="0" result="BackgroundImageFix"/>
<feColorMatrix in="SourceAlpha" type="matrix" values="0 0 0 0 0 0 0 0 0 0 0 0 0 0 0 0 0 0 127 0" result="hardAlpha"/>
<feOffset dx="-2.10864" dy="2.10864"/>
<feGaussianBlur stdDeviation="2.10864"/>
<feComposite in2="hardAlpha" operator="out"/>
<feColorMatrix type="matrix" values="0 0 0 0 0 0 0 0 0 0 0 0 0 0 0 0 0 0 0.2 0"/>
<feBlend mode="normal" in2="BackgroundImageFix" result="effect1_dropShadow_18_936"/>
<feBlend mode="normal" in="SourceGraphic" in2="effect1_dropShadow_18_936" result="shape"/>
</filter>
</defs>
</svg>
