<svg viewBox="0 0 67 88" fill="none" xmlns="http://www.w3.org/2000/svg">
<path d="M64 19.1131V79.0369C64 83.6952 60.2237 87.4715 55.5654 87.4715H8.43457C3.77629 87.4715 0 83.6952 0 79.0369V10.5723C0 5.914 3.77629 2.1377 8.43458 2.1377H45.5185L64 19.1131Z" fill="#008201"/>
<path fill-rule="evenodd" clip-rule="evenodd" d="M40.8105 25.7693L24.0144 35.4147H42.0369C43.121 35.4147 43.9999 36.289 44 37.3673V50.5474C44 51.592 43.1752 52.4453 42.138 52.4976L42.0369 52.5H23.8783L23.7772 52.4976C22.7735 52.447 21.9686 51.6463 21.9176 50.648L21.9152 50.5474V37.3673C21.9153 36.7163 22.2357 36.1398 22.7281 35.7851C22.2997 35.7213 21.9033 35.4725 21.6699 35.0705L20.1975 32.5339C19.791 31.8335 20.0321 30.9375 20.7362 30.5331L37.8658 20.6962L37.9324 20.6604C38.6259 20.3075 39.4835 20.5539 39.8773 21.2325L41.3496 23.7691L41.3856 23.8353C41.7289 24.5028 41.508 25.323 40.8752 25.7303L40.8105 25.7693ZM23.3876 50.5474C23.3876 50.817 23.6073 51.0355 23.8783 51.0355H42.0369C42.308 51.0355 42.5277 50.817 42.5277 50.5474V41.2725H23.3876V50.5474ZM23.6392 39.808H26.7937L29.7388 36.8791H26.5833L23.6392 39.808ZM30.2646 39.808H33.4192L36.3643 36.8791H33.2088L30.2646 39.808ZM36.89 39.808H40.1764L42.5277 37.4693V37.3673C42.5276 37.0978 42.3079 36.8791 42.0369 36.8791H39.8342L36.89 39.808ZM24.2397 30.2118L23.1628 34.2129L25.8946 32.644L26.9725 28.643L24.2397 30.2118ZM29.9775 26.9168L28.9006 30.9178L31.6324 29.349L32.7103 25.3479L29.9775 26.9168ZM35.7153 23.6218L34.6384 27.6228L37.4843 25.9882L38.5627 21.9871L35.7153 23.6218Z" fill="white"/>
<path d="M52 60.5C54.7614 60.5 57 62.7386 57 65.5V73.5C57 76.2614 54.7614 78.5 52 78.5H12C9.23858 78.5 7 76.2614 7 73.5V65.5C7 62.7386 9.23858 60.5 12 60.5H52ZM33.6299 64.5C32.7651 64.5 31.9882 64.697 31.3008 65.0898C30.6137 65.4796 30.0699 66.0467 29.6709 66.791C29.2719 67.5355 29.0732 68.4388 29.0732 69.5C29.0733 70.5581 29.2719 71.4596 29.6709 72.2041C30.0699 72.9485 30.6136 73.5173 31.3008 73.9102C31.9882 74.303 32.7651 74.5 33.6299 74.5C34.4882 74.5 35.2609 74.3047 35.9482 73.915C36.6387 73.5222 37.1839 72.9534 37.583 72.209C37.9852 71.4645 38.1865 70.5613 38.1865 69.5C38.1865 68.4387 37.9852 67.5356 37.583 66.791C37.1839 66.0465 36.6387 65.4796 35.9482 65.0898C35.261 64.6971 34.4882 64.5 33.6299 64.5ZM17 64.6328V74.3662H18.9961V68.0068H19.0762L21.5947 74.3193H22.9531L25.4727 68.0312H25.5527V74.3662H27.5488V64.6328H25.0117L22.3311 71.1729H22.2178L19.5371 64.6328H17ZM38.6348 64.6328L41.9932 74.3662H44.6455L48 64.6328H45.7188L43.3623 72.0283H43.2715L40.9199 64.6328H38.6348ZM33.6299 66.3203C34.1271 66.3204 34.5611 66.4426 34.9316 66.6865C35.3021 66.9304 35.5893 67.2879 35.792 67.7598C35.9979 68.2319 36.1006 68.8124 36.1006 69.5C36.1006 70.1873 35.9978 70.7672 35.792 71.2393C35.5893 71.7112 35.3022 72.0695 34.9316 72.3135C34.5611 72.5574 34.127 72.6796 33.6299 72.6797C33.1326 72.6797 32.6978 72.5574 32.3271 72.3135C31.9568 72.0695 31.6687 71.7111 31.4629 71.2393C31.2602 70.7672 31.1592 70.1874 31.1592 69.5C31.1592 68.8124 31.2602 68.2319 31.4629 67.7598C31.6687 67.2881 31.9569 66.9304 32.3271 66.6865C32.6978 66.4426 33.1326 66.3203 33.6299 66.3203Z" fill="white"/>
<g filter="url(#filter0_d_18_802)">
<path d="M63.9995 19.1131H47.6267C46.4621 19.1131 45.5181 18.1691 45.5181 17.0045V2.1377L63.9995 19.1131Z" fill="#E4E7EC"/>
</g>
<defs>
<filter id="filter0_d_18_802" x="39.1921" y="0.0290513" width="26.916" height="25.41" filterUnits="userSpaceOnUse" color-interpolation-filters="sRGB">
<feFlood flood-opacity="0" result="BackgroundImageFix"/>
<feColorMatrix in="SourceAlpha" type="matrix" values="0 0 0 0 0 0 0 0 0 0 0 0 0 0 0 0 0 0 127 0" result="hardAlpha"/>
<feOffset dx="-2.10864" dy="2.10864"/>
<feGaussianBlur stdDeviation="2.10864"/>
<feComposite in2="hardAlpha" operator="out"/>
<feColorMatrix type="matrix" values="0 0 0 0 0 0 0 0 0 0 0 0 0 0 0 0 0 0 0.2 0"/>
<feBlend mode="normal" in2="BackgroundImageFix" result="effect1_dropShadow_18_802"/>
<feBlend mode="normal" in="SourceGraphic" in2="effect1_dropShadow_18_802" result="shape"/>
</filter>
</defs>
</svg>
