<svg viewBox="0 0 67 88" fill="none" xmlns="http://www.w3.org/2000/svg">
<path d="M64 19.2047V79.1285C64 83.7868 60.2237 87.5631 55.5654 87.5631H8.43457C3.77629 87.5631 0 83.7868 0 79.1285V10.6638C0 6.00555 3.77629 2.22925 8.43458 2.22925H45.5185L64 19.2047Z" fill="#465167"/>
<path d="M52 61.4998C54.7613 61.4998 56.9999 63.7384 57 66.4998V74.4998C57 77.2612 54.7614 79.4998 52 79.4998H12C9.23858 79.4998 7 77.2612 7 74.4998V66.4998C7.00013 63.7384 9.23866 61.4998 12 61.4998H52ZM13 65.4998V75.4998H15.0908V71.3699H19.335V75.4998H21.4209V65.4998H19.335V69.6257H15.0908V65.4998H13ZM22.7686 65.4998V67.2429H25.7959V75.4998H27.8623V67.2429H30.8896V65.4998H22.7686ZM32.2275 65.4998V75.4998H34.2559V68.9666H34.3379L36.8965 75.4519H38.2773L40.8369 68.991H40.9189V75.4998H42.9473V65.4998H40.3691L37.6455 72.2195H37.5293L34.8057 65.4998H32.2275ZM44.6699 65.4998V75.4998H51V73.7566H46.7607V65.4998H44.6699Z" fill="white"/>
<path d="M21.3248 32.869C21.859 32.3766 22.6777 32.3727 23.217 32.8832C23.7561 33.3938 23.8247 34.2377 23.3972 34.8312L23.3052 34.9463L18.8285 40.0002L23.3052 45.0542C23.8314 45.6489 23.7917 46.5717 23.217 47.1163C22.6419 47.6607 21.7486 47.6212 21.2218 47.0269L15 40.0002L21.2218 32.9736L21.3248 32.869Z" fill="white"/>
<path d="M39.783 32.8832C40.3223 32.3727 41.141 32.3766 41.6752 32.869L41.7782 32.9736L48 40.0002L41.7782 47.0269C41.2514 47.6212 40.3581 47.6607 39.783 47.1163C39.2083 46.5717 39.1686 45.6489 39.6948 45.0542L44.1715 40.0002L39.6948 34.9463L39.6028 34.8312C39.1753 34.2377 39.2439 33.3938 39.783 32.8832Z" fill="white"/>
<path d="M33.651 33.37C34.0697 32.7702 34.8679 32.5836 35.5009 32.9612C36.1341 33.3392 36.3771 34.1476 36.0838 34.8227L36.0185 34.9558L29.4281 46.7598C29.0381 47.4582 28.1736 47.6973 27.4982 47.2941C26.8231 46.8908 26.5918 45.9978 26.9815 45.2995L33.5719 33.4955L33.651 33.37Z" fill="white"/>
<g filter="url(#filter0_d_18_690)">
<path d="M63.9995 19.2047H47.6267C46.4621 19.2047 45.5181 18.2606 45.5181 17.096V2.22925L63.9995 19.2047Z" fill="#E4E7EC"/>
</g>
<defs>
<filter id="filter0_d_18_690" x="39.1921" y="0.120604" width="26.916" height="25.4099" filterUnits="userSpaceOnUse" color-interpolation-filters="sRGB">
<feFlood flood-opacity="0" result="BackgroundImageFix"/>
<feColorMatrix in="SourceAlpha" type="matrix" values="0 0 0 0 0 0 0 0 0 0 0 0 0 0 0 0 0 0 127 0" result="hardAlpha"/>
<feOffset dx="-2.10864" dy="2.10864"/>
<feGaussianBlur stdDeviation="2.10864"/>
<feComposite in2="hardAlpha" operator="out"/>
<feColorMatrix type="matrix" values="0 0 0 0 0 0 0 0 0 0 0 0 0 0 0 0 0 0 0.2 0"/>
<feBlend mode="normal" in2="BackgroundImageFix" result="effect1_dropShadow_18_690"/>
<feBlend mode="normal" in="SourceGraphic" in2="effect1_dropShadow_18_690" result="shape"/>
</filter>
</defs>
</svg>
