<svg viewBox="0 0 67 88" fill="none" xmlns="http://www.w3.org/2000/svg">
<path d="M64 19.2047V79.1285C64 83.7868 60.2237 87.5631 55.5654 87.5631H8.43457C3.77629 87.5631 0 83.7868 0 79.1285V10.6638C0 6.00555 3.77629 2.22925 8.43458 2.22925H45.5185L64 19.2047Z" fill="#465167"/>
<path d="M52 61.4998C54.7613 61.4998 56.9999 63.7384 57 66.4998V74.4998C57 77.2612 54.7614 79.4998 52 79.4998H12C9.23858 79.4998 7 77.2612 7 74.4998V66.4998C7.00013 63.7384 9.23866 61.4998 12 61.4998H52ZM18.7373 65.6326V72.4197C18.7373 72.7301 18.6881 72.9916 18.5898 73.2039C18.4916 73.416 18.3478 73.5783 18.1582 73.6892C17.972 73.7968 17.7425 73.8503 17.4717 73.8503C17.2145 73.8503 16.9904 73.8026 16.8008 73.7078C16.6147 73.6096 16.4667 73.4702 16.3584 73.2898C16.2534 73.106 16.1972 72.8853 16.1904 72.6287H14C13.9966 73.2748 14.1443 73.8123 14.4424 74.24C14.7405 74.6643 15.1434 74.9821 15.6514 75.1912C16.163 75.3971 16.7335 75.4997 17.3604 75.4998C18.065 75.4997 18.6839 75.374 19.2158 75.1238C19.7472 74.8736 20.1619 74.5174 20.46 74.0554C20.7615 73.5928 20.9131 73.047 20.9131 72.4197V65.6326H18.7373ZM45.4512 65.4998C44.7633 65.4998 44.1238 65.6127 43.5342 65.8376C42.9449 66.0626 42.4281 66.3904 41.9844 66.821C41.5406 67.2519 41.1946 67.7783 40.9473 68.3992C40.7033 69.017 40.582 69.7206 40.582 70.5095C40.5821 71.536 40.7873 72.423 41.1973 73.1707C41.6106 73.9151 42.1862 74.4907 42.9248 74.8962C43.6635 75.2985 44.5213 75.4997 45.4971 75.4998C46.3711 75.4997 47.1476 75.3351 47.8252 75.0056C48.5027 74.6729 49.0347 74.2 49.4209 73.5886C49.807 72.974 50 72.2388 50 71.3835V70.158H45.6445V71.7068H47.8789C47.8699 72.096 47.776 72.4353 47.5957 72.7244C47.4094 73.0284 47.1378 73.2645 46.7822 73.4324C46.4299 73.5969 46.0047 73.6794 45.5068 73.6794C44.958 73.6794 44.4823 73.5554 44.0791 73.3083C43.6759 73.0581 43.3628 72.6956 43.1426 72.2205C42.9225 71.7454 42.8126 71.1686 42.8125 70.491C42.8125 69.8129 42.9248 69.2382 43.1484 68.7693C43.372 68.2977 43.6836 67.9382 44.083 67.6912C44.4862 67.4441 44.9545 67.3201 45.4863 67.3201C45.7706 67.3201 46.0301 67.3533 46.2637 67.4197C46.5008 67.4862 46.7116 67.584 46.8945 67.7107C47.0807 67.8342 47.2385 67.9863 47.3672 68.1667C47.4958 68.344 47.5959 68.548 47.667 68.7791H49.9033C49.8322 68.2978 49.6714 67.8577 49.4209 67.4587C49.1701 67.0564 48.8467 66.7082 48.4502 66.4167C48.0572 66.1253 47.6058 65.9013 47.0977 65.7429C46.5895 65.5814 46.0406 65.4998 45.4512 65.4998ZM22.7324 65.6326V75.366H24.9336V72.2107H26.7842C27.5836 72.2106 28.2648 72.0722 28.8271 71.7966C29.3928 71.521 29.8249 71.1364 30.123 70.6423C30.4212 70.1481 30.5703 69.5776 30.5703 68.9314C30.5703 68.2853 30.4235 67.7146 30.1289 67.2205C29.8375 66.7231 29.413 66.3352 28.8574 66.0564C28.3018 65.7745 27.6292 65.6326 26.8398 65.6326H22.7324ZM32 65.6326V75.366H39.0352V73.6697H34.2012V71.3455H38.6533V69.6492H34.2012V67.3298H39.0146V65.6326H32ZM26.417 67.3152C26.8438 67.3152 27.1968 67.3841 27.4746 67.5203C27.7521 67.6532 27.9592 67.8411 28.0947 68.0847C28.2336 68.3255 28.3037 68.6083 28.3037 68.9314C28.3037 69.2513 28.2336 69.5349 28.0947 69.782C27.9592 70.0259 27.7524 70.2178 27.4746 70.3572C27.2003 70.4932 26.8509 70.5612 26.4277 70.5613H24.9336V67.3152H26.417Z" fill="white"/>
<path fill-rule="evenodd" clip-rule="evenodd" d="M42.2632 25.5C44.8792 25.5 47 27.48 47 29.9217V49.0791C46.9998 51.5205 44.8791 53.5 42.2632 53.5H21.7368C19.1209 53.5 17.0002 51.5205 17 49.0791V29.9217C17 27.48 19.1208 25.5 21.7368 25.5H42.2632ZM28.7642 37.9468C28.4312 37.4981 27.7092 37.5316 27.4251 38.0087L21.4015 48.1278C21.1097 48.6188 21.4905 49.2223 22.0923 49.2223H42.0242C42.6859 49.2221 43.054 48.5073 42.6409 48.0249L37.551 42.0879C37.2571 41.7451 36.7095 41.7165 36.3768 42.0267L34.336 43.9314C33.9879 44.2561 33.4091 44.2074 33.1287 43.8299L28.7642 37.9468ZM38.2503 29.7785C36.0642 29.7785 34.2921 31.4324 34.2921 33.4727C34.2923 35.5128 36.0643 37.1668 38.2503 37.1668C40.4362 37.1667 42.2082 35.5128 42.2084 33.4727C42.2084 31.4324 40.4363 29.7786 38.2503 29.7785Z" fill="white"/>
<g filter="url(#filter0_d_18_929)">
<path d="M63.9995 19.2047H47.6267C46.4621 19.2047 45.5181 18.2606 45.5181 17.096V2.22925L63.9995 19.2047Z" fill="#E4E7EC"/>
</g>
<defs>
<filter id="filter0_d_18_929" x="39.1921" y="0.120604" width="26.916" height="25.4099" filterUnits="userSpaceOnUse" color-interpolation-filters="sRGB">
<feFlood flood-opacity="0" result="BackgroundImageFix"/>
<feColorMatrix in="SourceAlpha" type="matrix" values="0 0 0 0 0 0 0 0 0 0 0 0 0 0 0 0 0 0 127 0" result="hardAlpha"/>
<feOffset dx="-2.10864" dy="2.10864"/>
<feGaussianBlur stdDeviation="2.10864"/>
<feComposite in2="hardAlpha" operator="out"/>
<feColorMatrix type="matrix" values="0 0 0 0 0 0 0 0 0 0 0 0 0 0 0 0 0 0 0.2 0"/>
<feBlend mode="normal" in2="BackgroundImageFix" result="effect1_dropShadow_18_929"/>
<feBlend mode="normal" in="SourceGraphic" in2="effect1_dropShadow_18_929" result="shape"/>
</filter>
</defs>
</svg>
