<svg height="88" viewBox="0 0 67 88" fill="none" xmlns="http://www.w3.org/2000/svg">
<path d="M64 19.6512V79.575C64 84.2333 60.2237 88.0096 55.5654 88.0096H8.43457C3.77629 88.0096 0 84.2333 0 79.575V11.1104C0 6.45208 3.77629 2.67578 8.43458 2.67578H45.5185L64 19.6512Z" fill="#FF1200"/>
<path d="M31 39H42C42 41.1756 41.3547 43.3024 40.146 45.1114C38.9373 46.9203 37.2194 48.3301 35.2095 49.1627C33.1995 49.9952 30.9877 50.2131 28.854 49.7886C26.7202 49.3642 24.76 48.3167 23.2216 46.7784C21.6833 45.24 20.6358 43.2798 20.2114 41.146C19.7869 39.0122 20.0048 36.8005 20.8373 34.7906C21.6699 32.7806 23.0797 31.0627 24.8886 29.854C26.6976 28.6453 28.8244 28 31 28V39Z" fill="white"/>
<path d="M34 26C35.3131 26 36.6134 26.2587 37.8266 26.7612C39.0398 27.2637 40.1422 28.0002 41.0708 28.9287C41.9994 29.8573 42.7362 30.9601 43.2388 32.1734C43.7413 33.3866 44 34.6869 44 36H34V26Z" fill="white"/>
<path d="M52 62C54.7614 62 57 64.2386 57 67V75C57 77.7614 54.7614 80 52 80H12C9.23858 80 7 77.7614 7 75V67C7 64.2386 9.23858 62 12 62H52ZM20 66V76H22.0615V72.7578H23.7949C24.5439 72.7578 25.1821 72.6161 25.709 72.333C26.239 72.0498 26.6435 71.6542 26.9229 71.1465C27.2021 70.6388 27.3417 70.0526 27.3418 69.3887C27.3417 68.7248 27.2038 68.1386 26.9277 67.6309C26.6547 67.1198 26.2579 66.721 25.7373 66.4346C25.2169 66.145 24.587 66.0001 23.8477 66H20ZM28.6816 66V76H30.7432V72.7578H32.4766C33.2255 72.7578 33.8638 72.6162 34.3906 72.333C34.9206 72.0498 35.3252 71.6542 35.6045 71.1465C35.8837 70.6388 36.0234 70.0525 36.0234 69.3887C36.0234 68.7248 35.8855 68.1386 35.6094 67.6309C35.3364 67.1198 34.9395 66.721 34.4189 66.4346C33.8984 66.1449 33.2678 66 32.5283 66H28.6816ZM36.9912 66V67.7432H39.9766V76H42.0146V67.7432H45V66H36.9912ZM23.4521 67.7285C23.8518 67.7286 24.1822 67.7986 24.4424 67.9385C24.7024 68.0751 24.8965 68.2691 25.0234 68.5195C25.1534 68.7667 25.2187 69.057 25.2188 69.3887C25.2187 69.7173 25.1535 70.0089 25.0234 70.2627C24.8965 70.5133 24.7026 70.7103 24.4424 70.8535C24.1854 70.9934 23.8585 71.0634 23.4619 71.0635H22.0615V67.7285H23.4521ZM32.1328 67.7285C32.5328 67.7285 32.8637 67.7985 33.124 67.9385C33.3841 68.0751 33.5772 68.2691 33.7041 68.5195C33.8341 68.7668 33.9003 69.0569 33.9004 69.3887C33.9003 69.7173 33.8342 70.0089 33.7041 70.2627C33.5772 70.5132 33.3841 70.7103 33.124 70.8535C32.8671 70.9934 32.54 71.0634 32.1436 71.0635H30.7432V67.7285H32.1328Z" fill="white"/>
<g filter="url(#filter0_d_18_725)">
<path d="M63.9995 19.6512H47.6267C46.4621 19.6512 45.5181 18.7071 45.5181 17.5426V2.67578L63.9995 19.6512Z" fill="#E4E7EC"/>
</g>
<defs>
<filter id="filter0_d_18_725" x="39.1921" y="0.567137" width="26.916" height="25.41" filterUnits="userSpaceOnUse" color-interpolation-filters="sRGB">
<feFlood flood-opacity="0" result="BackgroundImageFix"/>
<feColorMatrix in="SourceAlpha" type="matrix" values="0 0 0 0 0 0 0 0 0 0 0 0 0 0 0 0 0 0 127 0" result="hardAlpha"/>
<feOffset dx="-2.10864" dy="2.10864"/>
<feGaussianBlur stdDeviation="2.10864"/>
<feComposite in2="hardAlpha" operator="out"/>
<feColorMatrix type="matrix" values="0 0 0 0 0 0 0 0 0 0 0 0 0 0 0 0 0 0 0.2 0"/>
<feBlend mode="normal" in2="BackgroundImageFix" result="effect1_dropShadow_18_725"/>
<feBlend mode="normal" in="SourceGraphic" in2="effect1_dropShadow_18_725" result="shape"/>
</filter>
</defs>
</svg>
