<svg viewBox="0 0 67 89" fill="none" xmlns="http://www.w3.org/2000/svg">
<path d="M64 19.7142V79.638C64 84.2963 60.2237 88.0726 55.5654 88.0726H8.43457C3.77629 88.0726 0 84.2963 0 79.638V11.1734C0 6.51507 3.77629 2.73877 8.43458 2.73877H45.5185L64 19.7142Z" fill="#465167"/>
<path d="M52 62.5054C54.7614 62.5054 57 64.7449 57 67.5063V75.5054C57 78.2668 54.7614 80.5063 52 80.5063H12C9.23858 80.5063 7 78.2668 7 75.5054V67.5063C7 64.7449 9.23858 62.5054 12 62.5054H52ZM27.6699 66.5005C26.7891 66.5005 25.9957 66.6966 25.291 67.0894C24.5864 67.479 24.0283 68.0462 23.6172 68.7905C23.2061 69.535 23.0001 70.4383 23 71.4995C23 72.5576 23.2029 73.4591 23.6074 74.2036C24.0153 74.9482 24.5699 75.5178 25.2715 75.9106C25.9762 76.3034 26.776 76.4995 27.6699 76.4995C28.3125 76.4995 28.8886 76.406 29.3975 76.2192C29.9097 76.0291 30.351 75.7728 30.7197 75.4497C31.0917 75.1234 31.3868 74.7541 31.6055 74.3423C31.8273 73.9273 31.966 73.496 32.0215 73.0493L29.877 73.0405C29.828 73.2999 29.7404 73.5314 29.6133 73.7339C29.4893 73.9365 29.3327 74.1099 29.1436 74.2524C28.9544 74.3917 28.7368 74.497 28.4922 74.5698C28.2507 74.6427 27.988 74.6792 27.7041 74.6792C27.1983 74.6792 26.7522 74.5587 26.3672 74.3179C25.9825 74.0771 25.6821 73.7212 25.4668 73.2495C25.2547 72.7774 25.1485 72.1934 25.1484 71.4995C25.1485 70.8248 25.2547 70.2508 25.4668 69.7788C25.6789 69.3037 25.9783 68.9429 26.3633 68.6958C26.7483 68.4456 27.2001 68.3208 27.7188 68.3208C28.0057 68.3208 28.272 68.3599 28.5166 68.439C28.7645 68.5182 28.9836 68.6329 29.1729 68.7817C29.3619 68.9305 29.5171 69.1108 29.6377 69.3228C29.7584 69.5318 29.8378 69.7714 29.877 70.0405H32.0215C31.9529 69.4767 31.7965 68.9757 31.5518 68.5386C31.3103 68.1014 30.9963 67.7321 30.6113 67.4312C30.2264 67.1272 29.7841 66.8961 29.2852 66.7378C28.7893 66.5795 28.2506 66.5005 27.6699 66.5005ZM33.542 66.6333V76.3667H37.0957C38.1136 76.3666 38.9879 76.1713 39.7188 75.7817C40.4529 75.3921 41.0156 74.8326 41.4072 74.104C41.802 73.3753 42 72.5035 42 71.4897C41.9999 70.4793 41.802 69.6117 41.4072 68.8862C41.0156 68.1607 40.4562 67.6038 39.7285 67.2173C39.0009 66.8277 38.1331 66.6334 37.125 66.6333H33.542ZM37.0117 68.396C37.6381 68.396 38.1653 68.5039 38.5928 68.7192C39.0202 68.9347 39.3423 69.2708 39.5576 69.7271C39.7762 70.1832 39.8847 70.7708 39.8848 71.4897C39.8848 72.215 39.7761 72.8077 39.5576 73.2671C39.3422 73.7234 39.0187 74.0621 38.5879 74.2808C38.1605 74.496 37.633 74.603 37.0068 74.603H35.6611V68.396H37.0117Z" fill="white"/>
<path d="M32.5293 37.5247C33.6202 37.817 34.2676 38.9384 33.9753 40.0293C33.6829 41.1201 32.5616 41.7676 31.4707 41.4753C30.3798 41.183 29.7325 40.0616 30.0247 38.9707C30.317 37.8798 31.4384 37.2324 32.5293 37.5247Z" fill="white"/>
<path fill-rule="evenodd" clip-rule="evenodd" d="M35.8813 25.0147C43.8813 27.1583 48.6289 35.3813 46.4853 43.3813C44.3417 51.3813 36.1187 56.1289 28.1187 53.9853C20.1187 51.8417 15.3711 43.6187 17.5147 35.6187C19.6583 27.6187 27.8813 22.8711 35.8813 25.0147ZM36.5535 43.8482C35.9053 44.6125 35.028 45.148 34.052 45.3756L35.8191 52.9522C38.4208 52.3455 40.7587 50.9178 42.4868 48.8803L36.5535 43.8482ZM33.4114 34.2326C30.5023 33.4531 27.5121 35.1795 26.7326 38.0886C25.9531 40.9977 27.6795 43.9879 30.5886 44.7674C33.4977 45.5469 36.4879 43.8205 37.2674 40.9114C38.0469 38.0023 36.3205 35.0121 33.4114 34.2326ZM27.8236 26.1698C25.2233 26.8728 22.9183 28.3939 21.2487 30.5078L27.4041 35.3692C28.0304 34.5763 28.8955 34.006 29.871 33.7423L27.8236 26.1698Z" fill="white"/>
<g filter="url(#filter0_d_18_494)">
<path d="M63.9995 19.7142H47.6267C46.4621 19.7142 45.5181 18.7701 45.5181 17.6056V2.73877L63.9995 19.7142Z" fill="#E4E7EC"/>
</g>
<defs>
<filter id="filter0_d_18_494" x="39.1921" y="0.630126" width="26.916" height="25.4099" filterUnits="userSpaceOnUse" color-interpolation-filters="sRGB">
<feFlood flood-opacity="0" result="BackgroundImageFix"/>
<feColorMatrix in="SourceAlpha" type="matrix" values="0 0 0 0 0 0 0 0 0 0 0 0 0 0 0 0 0 0 127 0" result="hardAlpha"/>
<feOffset dx="-2.10864" dy="2.10864"/>
<feGaussianBlur stdDeviation="2.10864"/>
<feComposite in2="hardAlpha" operator="out"/>
<feColorMatrix type="matrix" values="0 0 0 0 0 0 0 0 0 0 0 0 0 0 0 0 0 0 0.2 0"/>
<feBlend mode="normal" in2="BackgroundImageFix" result="effect1_dropShadow_18_494"/>
<feBlend mode="normal" in="SourceGraphic" in2="effect1_dropShadow_18_494" result="shape"/>
</filter>
</defs>
</svg>
