<svg viewBox="0 0 67 88" fill="none" xmlns="http://www.w3.org/2000/svg">
<path d="M64 19.2047V79.1285C64 83.7868 60.2237 87.5631 55.5654 87.5631H8.43457C3.77629 87.5631 0 83.7868 0 79.1285V10.6638C0 6.00555 3.77629 2.22925 8.43458 2.22925H45.5185L64 19.2047Z" fill="#155EEF"/>
<path d="M29.6053 47.1667C30.2593 47.1667 30.7895 47.689 30.7895 48.3333C30.7895 48.9777 30.2593 49.5 29.6053 49.5H16.1842C15.5302 49.5 15 48.9777 15 48.3333C15 47.689 15.5302 47.1667 16.1842 47.1667H29.6053Z" fill="white"/>
<path d="M47.8158 40.9444C48.4698 40.9444 49 41.4668 49 42.1111C49 42.7554 48.4698 43.2778 47.8158 43.2778H16.1842C15.5302 43.2778 15 42.7554 15 42.1111C15 41.4668 15.5302 40.9444 16.1842 40.9444H47.8158Z" fill="white"/>
<path d="M47.8158 34.7222C48.4698 34.7222 49 35.2446 49 35.8889C49 36.5332 48.4698 37.0556 47.8158 37.0556H16.1842C15.5302 37.0556 15 36.5332 15 35.8889C15 35.2446 15.5302 34.7222 16.1842 34.7222H47.8158Z" fill="white"/>
<path d="M47.8158 28.5C48.4698 28.5 49 29.0223 49 29.6667C49 30.311 48.4698 30.8333 47.8158 30.8333H16.1842C15.5302 30.8333 15 30.311 15 29.6667C15 29.0223 15.5302 28.5 16.1842 28.5H47.8158Z" fill="white"/>
<path d="M52 60.9998C54.7613 60.9998 56.9999 63.2384 57 65.9998V73.9998C57 76.7612 54.7614 78.9998 52 78.9998H12C9.23858 78.9998 7 76.7612 7 73.9998V65.9998C7.00013 63.2384 9.23866 60.9998 12 60.9998H52ZM26.9795 65.4998C26.1237 65.4998 25.3551 65.6969 24.6748 66.0896C23.9944 66.4793 23.4556 67.0463 23.0605 67.7908C22.6655 68.5353 22.4688 69.4385 22.4688 70.4998C22.4688 71.5577 22.6656 72.4594 23.0605 73.2039C23.4557 73.9484 23.9944 74.517 24.6748 74.9099C25.3552 75.3027 26.1236 75.4997 26.9795 75.4998C27.8292 75.4997 28.595 75.3054 29.2754 74.9158C29.959 74.5229 30.4984 73.9532 30.8936 73.2087C31.2917 72.4643 31.4912 71.5609 31.4912 70.4998C31.4912 69.4384 31.2918 68.5353 30.8936 67.7908C30.4985 67.0463 29.9589 66.4793 29.2754 66.0896C28.5949 65.6968 27.8292 65.4998 26.9795 65.4998ZM37.3184 65.4998C36.4716 65.4998 35.7096 65.6967 35.0322 66.0896C34.3548 66.4793 33.818 67.0462 33.4229 67.7908C33.0278 68.5353 32.8311 69.4385 32.8311 70.4998C32.8311 71.5579 33.0253 72.4593 33.4141 73.2039C33.8061 73.9484 34.3394 74.517 35.0137 74.9099C35.691 75.3027 36.4592 75.4998 37.3184 75.4998C37.936 75.4997 38.4894 75.4063 38.9785 75.2195C39.4709 75.0294 39.8946 74.7722 40.249 74.449C40.6064 74.1227 40.8896 73.7533 41.0996 73.3416C41.3128 72.9266 41.4467 72.4961 41.5 72.0496L39.4395 72.0398C39.3924 72.2994 39.3077 72.5305 39.1855 72.7332C39.0664 72.9358 38.9161 73.1092 38.7344 73.2517C38.5526 73.391 38.3434 73.4972 38.1084 73.5701C37.8766 73.6428 37.6241 73.6794 37.3516 73.6794C36.8656 73.6794 36.4374 73.5588 36.0674 73.3181C35.6974 73.0773 35.4081 72.7208 35.2012 72.2488C34.9974 71.7768 34.8955 71.1934 34.8955 70.4998C34.8955 69.825 34.9973 69.2511 35.2012 68.7791C35.405 68.3039 35.6926 67.9431 36.0625 67.696C36.4325 67.4459 36.8668 67.3201 37.3652 67.3201C37.6411 67.3201 37.8967 67.36 38.1318 67.4392C38.3699 67.5183 38.58 67.6323 38.7617 67.781C38.9436 67.9299 39.093 68.1108 39.209 68.323C39.325 68.5321 39.4018 68.7716 39.4395 69.0408H41.5C41.4341 68.4769 41.283 67.976 41.0479 67.5388C40.8158 67.1018 40.5154 66.7323 40.1455 66.4314C39.7756 66.1274 39.3507 65.8955 38.8711 65.7371C38.3944 65.5787 37.8765 65.4998 37.3184 65.4998ZM13 65.6326V75.366H16.415C17.3934 75.366 18.2341 75.1716 18.9365 74.782C19.642 74.3923 20.1833 73.8328 20.5596 73.1042C20.9389 72.3756 21.1289 71.5037 21.1289 70.49C21.1289 69.4797 20.9388 68.6119 20.5596 67.8865C20.1832 67.1609 19.6447 66.6041 18.9453 66.2175C18.2461 65.828 17.4121 65.6326 16.4434 65.6326H13ZM42.3545 65.6326L45.3135 70.4998L42.2979 75.366H44.6309L46.6064 72.0447H46.6816L48.6572 75.366H51L47.9941 70.4998L50.9336 65.6326H48.6338L46.6816 68.9509H46.6064L44.6631 65.6326H42.3545ZM26.9795 67.3201C27.4717 67.3201 27.9017 67.4424 28.2686 67.6863C28.6355 67.9302 28.9194 68.2884 29.1201 68.7605C29.3239 69.2325 29.4258 69.8124 29.4258 70.4998C29.4258 71.1871 29.3239 71.767 29.1201 72.239C28.9194 72.711 28.6354 73.0693 28.2686 73.3132C27.9017 73.5571 27.4717 73.6794 26.9795 73.6794C26.4873 73.6794 26.0572 73.5571 25.6904 73.3132C25.3237 73.0693 25.0387 72.7109 24.835 72.239C24.6343 71.767 24.5332 71.1871 24.5332 70.4998C24.5332 69.8124 24.6343 69.2325 24.835 68.7605C25.0388 68.2886 25.3236 67.9302 25.6904 67.6863C26.0572 67.4424 26.4873 67.3201 26.9795 67.3201ZM16.335 67.3962C16.937 67.3963 17.4437 67.5041 17.8545 67.7195C18.2653 67.9349 18.5743 68.2711 18.7812 68.7273C18.9912 69.1834 19.0966 69.7711 19.0967 70.49C19.0967 71.2154 18.9913 71.808 18.7812 72.2673C18.5743 72.7236 18.2636 73.0614 17.8496 73.28C17.4388 73.4954 16.9321 73.6033 16.3301 73.6033H15.0371V67.3962H16.335Z" fill="white"/>
<g filter="url(#filter0_d_18_144)">
<path d="M63.9995 19.2047H47.6267C46.4621 19.2047 45.5181 18.2606 45.5181 17.096V2.22925L63.9995 19.2047Z" fill="#E4E7EC"/>
</g>
<defs>
<filter id="filter0_d_18_144" x="39.1921" y="0.120604" width="26.916" height="25.4099" filterUnits="userSpaceOnUse" color-interpolation-filters="sRGB">
<feFlood flood-opacity="0" result="BackgroundImageFix"/>
<feColorMatrix in="SourceAlpha" type="matrix" values="0 0 0 0 0 0 0 0 0 0 0 0 0 0 0 0 0 0 127 0" result="hardAlpha"/>
<feOffset dx="-2.10864" dy="2.10864"/>
<feGaussianBlur stdDeviation="2.10864"/>
<feComposite in2="hardAlpha" operator="out"/>
<feColorMatrix type="matrix" values="0 0 0 0 0 0 0 0 0 0 0 0 0 0 0 0 0 0 0.2 0"/>
<feBlend mode="normal" in2="BackgroundImageFix" result="effect1_dropShadow_18_144"/>
<feBlend mode="normal" in="SourceGraphic" in2="effect1_dropShadow_18_144" result="shape"/>
</filter>
</defs>
</svg>
