<svg viewBox="0 0 67 88" fill="none" xmlns="http://www.w3.org/2000/svg">
<path d="M64 19.5387V79.4625C64 84.1208 60.2237 87.897 55.5654 87.897H8.43457C3.77629 87.897 0 84.1208 0 79.4625V10.9978C0 6.33953 3.77629 2.56323 8.43458 2.56323H45.5185L64 19.5387Z" fill="#FF6300"/>
<path d="M52 61.6462C54.7614 61.6462 57 63.8848 57 66.6462V74.6462C57 77.4077 54.7614 79.6462 52 79.6462H12C9.23858 79.6462 7 77.4077 7 74.6462V66.6462C7 63.8848 9.23858 61.6462 12 61.6462H52ZM41.1289 65.4998C40.3973 65.4998 39.7438 65.624 39.1689 65.8708C38.5941 66.1178 38.1405 66.461 37.8105 66.9011C37.484 67.3412 37.322 67.8562 37.3252 68.4451C37.3219 69.1638 37.5659 69.7356 38.0557 70.1599C38.5457 70.5843 39.2144 70.8969 40.0605 71.0964L41.1523 71.3621C41.5181 71.4475 41.8276 71.5428 42.0791 71.6472C42.3336 71.7517 42.5266 71.8784 42.6572 72.0271C42.7912 72.176 42.8584 72.3603 42.8584 72.5789C42.8583 72.813 42.7845 73.0205 42.6377 73.2009C42.4907 73.3813 42.2824 73.5225 42.0146 73.6238C41.7502 73.725 41.4382 73.7751 41.0791 73.7751C40.7134 73.7751 40.3853 73.7216 40.0947 73.614C39.8073 73.5032 39.5765 73.3401 39.4033 73.1248C39.2336 72.9064 39.1372 72.6342 39.1143 72.3083H37.0605C37.077 73.0079 37.2519 73.5952 37.585 74.0701C37.9214 74.5419 38.3886 74.8987 38.9863 75.1394C39.5874 75.3801 40.2934 75.4997 41.1035 75.4998C41.9203 75.4998 42.618 75.3808 43.1963 75.1433C43.7777 74.9026 44.2222 74.5654 44.5293 74.1316C44.8395 73.6946 44.9967 73.178 45 72.5828C44.9967 72.1776 44.9197 71.818 44.7695 71.5046C44.6226 71.1914 44.415 70.9193 44.1475 70.6882C43.8796 70.4571 43.5621 70.2616 43.1963 70.1033C42.8306 69.945 42.4287 69.8184 41.9912 69.7234L41.0889 69.5144C40.8701 69.4669 40.6643 69.41 40.4717 69.3435C40.279 69.2738 40.1089 69.1922 39.9619 69.1003C39.8151 69.0054 39.6991 68.8931 39.6143 68.7634C39.5327 68.6336 39.4954 68.4815 39.502 68.3074C39.502 68.0985 39.5635 67.9114 39.6875 67.7468C39.8148 67.5823 39.9981 67.4539 40.2363 67.3621C40.4747 67.2672 40.7673 67.2195 41.1133 67.2195C41.6229 67.2195 42.0269 67.3257 42.3242 67.5378C42.6214 67.75 42.7899 68.0482 42.8291 68.4314H44.8623C44.8525 67.8519 44.6931 67.3413 44.3828 66.9011C44.0725 66.461 43.6375 66.1179 43.0791 65.8708C42.5239 65.6239 41.8735 65.4998 41.1289 65.4998ZM20 65.6326V75.3621H26.7822V73.6658H22.1221V71.3435H26.415V69.6472H22.1221V67.3289H26.7627V65.6326H20ZM28.4492 65.6326V75.3621H30.5713V72.2078H32.3555C33.1264 72.2077 33.7829 72.0692 34.3252 71.7937C34.8706 71.5182 35.2877 71.1343 35.5752 70.6404C35.8626 70.1465 36.0058 69.5762 36.0059 68.9304C36.0059 68.2844 35.8643 67.7135 35.5801 67.2195C35.2992 66.7223 34.8902 66.3351 34.3545 66.0564C33.8188 65.7746 33.1703 65.6326 32.4092 65.6326H28.4492ZM32.002 67.3142C32.4135 67.3142 32.7536 67.3832 33.0215 67.5193C33.2891 67.6522 33.4885 67.8402 33.6191 68.0837C33.7531 68.3244 33.8203 68.6074 33.8203 68.9304C33.8202 69.25 33.753 69.5332 33.6191 69.78C33.4885 70.0238 33.2893 70.2159 33.0215 70.3552C32.757 70.4912 32.4207 70.5593 32.0127 70.5593H30.5713V67.3142H32.002Z" fill="white"/>
<path fill-rule="evenodd" clip-rule="evenodd" d="M48 32.6062L44.9446 35.7123L42.3468 33.0714H38.5455C39.6982 33.6752 40.7638 34.4595 41.6977 35.4089C43.9234 37.6715 45.2334 40.6904 45.3864 43.8715C46.6066 44.1831 47.5101 45.3058 47.5101 46.6429C47.5101 48.2208 46.2518 49.5 44.6996 49.5C43.1474 49.5 41.8891 48.2208 41.8891 46.6429C41.8891 45.3179 42.7764 44.2038 43.9798 43.8806C43.8301 41.0753 42.6683 38.4158 40.7041 36.4189C39.2253 34.9156 37.377 33.8745 35.3761 33.3867C34.9696 34.4557 33.95 35.2143 32.755 35.2143C31.5528 35.2143 30.5279 34.4465 30.1264 33.3672C30.1288 33.3737 30.1308 33.3803 30.1333 33.3867C28.1327 33.8746 26.2846 34.9158 24.806 36.4189C22.8417 38.4158 21.6793 41.0753 21.5296 43.8806C22.7333 44.2036 23.621 45.3176 23.621 46.6429C23.621 48.2208 22.3627 49.5 20.8105 49.5C19.2583 49.5 18 48.2208 18 46.6429C18 45.306 18.9031 44.1833 20.123 43.8715C20.276 40.6904 21.5867 37.6715 23.8124 35.4089C24.7462 34.4596 25.8115 33.6752 26.9639 33.0714H23.6532L21.0554 35.7123L18 32.6062L21.0554 29.5L23.1633 31.6429H30.0331C30.3451 30.4105 31.4455 29.5 32.755 29.5C34.0646 29.5 35.165 30.4105 35.477 31.6429H42.8367L44.9446 29.5L48 32.6062ZM20.8105 45.2143C20.0344 45.2143 19.4052 45.8539 19.4052 46.6429C19.4052 47.4318 20.0344 48.0714 20.8105 48.0714C21.5866 48.0714 22.2157 47.4318 22.2157 46.6429C22.2157 45.8539 21.5866 45.2143 20.8105 45.2143ZM44.6996 45.2143C43.9235 45.2143 43.2944 45.8539 43.2944 46.6429C43.2944 47.4318 43.9235 48.0714 44.6996 48.0714C45.4757 48.0714 46.1048 47.4318 46.1048 46.6429C46.1048 45.8539 45.4757 45.2143 44.6996 45.2143ZM32.755 30.9286C31.979 30.9286 31.3498 31.5682 31.3498 32.3571C31.3498 33.1461 31.979 33.7857 32.755 33.7857C33.5311 33.7857 34.1603 33.1461 34.1603 32.3571C34.1603 31.5682 33.5311 30.9286 32.755 30.9286ZM19.9878 32.6062L21.0554 33.6915L22.1231 32.6062L21.0554 31.5201L19.9878 32.6062ZM43.8769 32.6062L44.9446 33.6915L46.0122 32.6062L44.9446 31.5201L43.8769 32.6062Z" fill="white"/>
<g filter="url(#filter0_d_18_943)">
<path d="M63.9995 19.5387H47.6267C46.4621 19.5387 45.5181 18.5946 45.5181 17.43V2.56323L63.9995 19.5387Z" fill="#E4E7EC"/>
</g>
<defs>
<filter id="filter0_d_18_943" x="39.1921" y="0.454588" width="26.916" height="25.4099" filterUnits="userSpaceOnUse" color-interpolation-filters="sRGB">
<feFlood flood-opacity="0" result="BackgroundImageFix"/>
<feColorMatrix in="SourceAlpha" type="matrix" values="0 0 0 0 0 0 0 0 0 0 0 0 0 0 0 0 0 0 127 0" result="hardAlpha"/>
<feOffset dx="-2.10864" dy="2.10864"/>
<feGaussianBlur stdDeviation="2.10864"/>
<feComposite in2="hardAlpha" operator="out"/>
<feColorMatrix type="matrix" values="0 0 0 0 0 0 0 0 0 0 0 0 0 0 0 0 0 0 0.2 0"/>
<feBlend mode="normal" in2="BackgroundImageFix" result="effect1_dropShadow_18_943"/>
<feBlend mode="normal" in="SourceGraphic" in2="effect1_dropShadow_18_943" result="shape"/>
</filter>
</defs>
</svg>
