<svg height="88" viewBox="0 0 67 88" fill="none" xmlns="http://www.w3.org/2000/svg">
<path d="M64 19.5387V79.4625C64 84.1208 60.2237 87.897 55.5654 87.897H8.43457C3.77629 87.897 0 84.1208 0 79.4625V10.9978C0 6.33953 3.77629 2.56323 8.43458 2.56323H45.5185L64 19.5387Z" fill="#155EEF"/>
<path d="M52 61.4998C54.7613 61.4998 56.9999 63.7384 57 66.4998V74.4998C57 77.2612 54.7614 79.4998 52 79.4998H12C9.23858 79.4998 7 77.2612 7 74.4998V66.4998C7.00013 63.7384 9.23866 61.4998 12 61.4998H52ZM37.0234 64.4998C36.2718 64.4998 35.6003 64.6239 35.0098 64.8708C34.4194 65.1178 33.9541 65.4611 33.6152 65.9011C33.2798 66.3412 33.1139 66.8562 33.1172 67.4451C33.1138 68.1639 33.364 68.7355 33.8672 69.1599C34.3705 69.5842 35.0568 69.8969 35.9258 70.0964L37.0479 70.3621C37.4236 70.4476 37.7416 70.5427 38 70.6472C38.2615 70.7517 38.4596 70.8784 38.5938 71.0271C38.7313 71.1759 38.7998 71.3603 38.7998 71.5789C38.7997 71.813 38.725 72.0206 38.5742 72.2009C38.4232 72.3815 38.2088 72.5224 37.9336 72.6238C37.6619 72.725 37.3415 72.7751 36.9727 72.7751C36.597 72.7751 36.2595 72.7216 35.9609 72.614C35.666 72.5032 35.4297 72.3398 35.252 72.1248C35.0776 71.9064 34.9787 71.6342 34.9551 71.3083H32.8457C32.8626 72.0079 33.0417 72.5952 33.3838 73.0701C33.7294 73.5419 34.2092 73.8987 34.8232 74.1394C35.4407 74.3801 36.1659 74.4998 36.998 74.4998C37.837 74.4998 38.5535 74.3808 39.1475 74.1433C39.7446 73.9026 40.2012 73.5654 40.5166 73.1316C40.8352 72.6946 40.9966 72.178 41 71.5828C40.9966 71.1776 40.917 70.8181 40.7627 70.5046C40.6118 70.1914 40.3989 69.9193 40.124 69.6882C39.8489 69.4571 39.5232 69.2616 39.1475 69.1033C38.7717 68.945 38.3587 68.8184 37.9092 68.7234L36.9824 68.5144C36.7578 68.4669 36.5464 68.4099 36.3486 68.3435C36.1507 68.2738 35.9762 68.1922 35.8252 68.1003C35.6744 68.0054 35.555 67.8932 35.4678 67.7634C35.384 67.6336 35.3458 67.4814 35.3525 67.3074C35.3526 67.0985 35.4156 66.9114 35.543 66.7468C35.6738 66.5823 35.8618 66.4539 36.1064 66.3621C36.3514 66.2671 36.6522 66.2195 37.0078 66.2195C37.5313 66.2195 37.9466 66.3256 38.252 66.5378C38.5571 66.75 38.7293 67.0484 38.7695 67.4314H40.8584C40.8483 66.8519 40.684 66.3413 40.3652 65.9011C40.0465 65.4612 39.5999 65.1178 39.0264 64.8708C38.456 64.6239 37.7883 64.4998 37.0234 64.4998ZM24 64.6326V74.3621H26.1797V71.2078H28.0117C28.8036 71.2077 29.4782 71.0692 30.0352 70.7937C30.5953 70.5183 31.0231 70.1342 31.3184 69.6404C31.6136 69.1465 31.7616 68.5762 31.7617 67.9304C31.7617 67.2844 31.6161 66.7135 31.3242 66.2195C31.0357 65.7223 30.6156 65.3351 30.0654 65.0564C29.5151 64.7746 28.8492 64.6326 28.0674 64.6326H24ZM27.6494 66.3142C28.072 66.3143 28.4212 66.3832 28.6963 66.5193C28.9712 66.6522 29.1763 66.8401 29.3105 67.0837C29.4481 67.3244 29.5166 67.6074 29.5166 67.9304C29.5165 68.25 29.448 68.5332 29.3105 68.78C29.1763 69.0238 28.9714 69.2159 28.6963 69.3552C28.4247 69.4912 28.0792 69.5592 27.6602 69.5593H26.1797V66.3142H27.6494Z" fill="white"/>
<path d="M34.3986 39.2818C35.0653 34.8351 42.3995 35.5021 43.2892 36.6137V39.5041C43.2644 39.4951 38.3979 37.73 37.9551 39.5041C37.5115 41.2826 44.6221 41.2829 43.9559 45.7295C43.2695 50.3102 37.0655 49.954 34.3991 48.6199V45.2848C36.1765 46.3965 39.9558 47.0633 40.3999 45.7295C40.8437 44.1732 33.7319 43.9508 34.3986 39.2818Z" fill="white"/>
<path fill-rule="evenodd" clip-rule="evenodd" d="M26.1028 31.5C27.5197 31.5 28.731 31.7497 29.7366 32.2491C30.7574 32.7485 31.5348 33.4573 32.068 34.3756C32.6165 35.2939 32.891 36.3979 32.8911 37.6868V38.0737C32.891 39.3302 32.6165 40.4257 32.068 41.3601C31.5348 42.2784 30.7574 42.9872 29.7366 43.4866C28.731 43.986 27.5197 44.2357 26.1028 44.2357H23.7483V49.2869H20V31.5H26.1028ZM23.7483 40.8042H26.2856C26.8645 40.8042 27.3597 40.6833 27.771 40.4416C28.1976 40.2 28.5257 39.8618 28.7542 39.4268C28.9827 38.9758 29.0967 38.4602 29.0967 37.8804C29.0967 37.2682 28.9828 36.7439 28.7542 36.3089C28.5257 35.8578 28.1976 35.5196 27.771 35.294C27.3597 35.0525 26.8644 34.9315 26.2856 34.9314H23.7483V40.8042Z" fill="white"/>
<g filter="url(#filter0_d_18_158)">
<path d="M63.9995 19.5387H47.6267C46.4621 19.5387 45.5181 18.5946 45.5181 17.43V2.56323L63.9995 19.5387Z" fill="#E4E7EC"/>
</g>
<defs>
<filter id="filter0_d_18_158" x="39.1921" y="0.454588" width="26.916" height="25.4099" filterUnits="userSpaceOnUse" color-interpolation-filters="sRGB">
<feFlood flood-opacity="0" result="BackgroundImageFix"/>
<feColorMatrix in="SourceAlpha" type="matrix" values="0 0 0 0 0 0 0 0 0 0 0 0 0 0 0 0 0 0 127 0" result="hardAlpha"/>
<feOffset dx="-2.10864" dy="2.10864"/>
<feGaussianBlur stdDeviation="2.10864"/>
<feComposite in2="hardAlpha" operator="out"/>
<feColorMatrix type="matrix" values="0 0 0 0 0 0 0 0 0 0 0 0 0 0 0 0 0 0 0.2 0"/>
<feBlend mode="normal" in2="BackgroundImageFix" result="effect1_dropShadow_18_158"/>
<feBlend mode="normal" in="SourceGraphic" in2="effect1_dropShadow_18_158" result="shape"/>
</filter>
</defs>
</svg>
