<svg viewBox="0 0 67 88" fill="none" xmlns="http://www.w3.org/2000/svg">
<path d="M64 19.2047V79.1285C64 83.7868 60.2237 87.5631 55.5654 87.5631H8.43457C3.77629 87.5631 0 83.7868 0 79.1285V10.6638C0 6.00555 3.77629 2.22925 8.43458 2.22925H45.5185L64 19.2047Z" fill="#155EEF"/>
<path fill-rule="evenodd" clip-rule="evenodd" d="M42.2632 25.5C44.8792 25.5 47 27.48 47 29.9217V49.0791C46.9998 51.5205 44.8791 53.5 42.2632 53.5H21.7368C19.1209 53.5 17.0002 51.5205 17 49.0791V29.9217C17 27.48 19.1208 25.5 21.7368 25.5H42.2632ZM28.7642 37.9468C28.4312 37.4981 27.7092 37.5316 27.4251 38.0087L21.4015 48.1278C21.1097 48.6188 21.4905 49.2223 22.0923 49.2223H42.0242C42.6859 49.2221 43.054 48.5073 42.6409 48.0249L37.551 42.0879C37.2571 41.7451 36.7095 41.7165 36.3768 42.0267L34.336 43.9314C33.9879 44.2561 33.4091 44.2074 33.1287 43.8299L28.7642 37.9468ZM38.2503 29.7785C36.0642 29.7785 34.2921 31.4324 34.2921 33.4727C34.2923 35.5128 36.0643 37.1668 38.2503 37.1668C40.4362 37.1667 42.2082 35.5128 42.2084 33.4727C42.2084 31.4324 40.4363 29.7786 38.2503 29.7785Z" fill="white"/>
<path d="M52 61.4998C54.7613 61.4998 56.9999 63.7384 57 66.4998V74.4998C57 77.2612 54.7614 79.4998 52 79.4998H12C9.23858 79.4998 7 77.2612 7 74.4998V66.4998C7.00013 63.7384 9.23866 61.4998 12 61.4998H52ZM22.6963 65.6326V72.4197C22.6963 72.73 22.6481 72.9916 22.5508 73.2039C22.4534 73.4161 22.3101 73.5783 22.1221 73.6892C21.9375 73.7967 21.7107 73.8503 21.4424 73.8503C21.1874 73.8503 20.9653 73.8026 20.7773 73.7078C20.5926 73.6096 20.4454 73.4703 20.3379 73.2898C20.2338 73.106 20.1786 72.8853 20.1719 72.6287H18C17.9967 73.2748 18.143 73.8123 18.4385 74.24C18.734 74.6644 19.134 74.9821 19.6377 75.1912C20.1448 75.397 20.7098 75.4997 21.3311 75.4998C22.0295 75.4997 22.6427 75.3739 23.1699 75.1238C23.6969 74.8736 24.1088 74.5176 24.4043 74.0554C24.7033 73.5928 24.8535 73.047 24.8535 72.4197V65.6326H22.6963ZM40.4902 65.4998C39.8083 65.4998 39.1743 65.6127 38.5898 65.8376C38.0058 66.0626 37.4935 66.3904 37.0537 66.821C36.6138 67.2519 36.2716 67.7784 36.0264 68.3992C35.7845 69.017 35.6631 69.7206 35.6631 70.5095C35.6631 71.536 35.867 72.4229 36.2734 73.1707C36.6832 73.9151 37.2541 74.4907 37.9863 74.8962C38.7185 75.2985 39.5689 75.4997 40.5361 75.4998C41.4026 75.4997 42.172 75.3351 42.8438 75.0056C43.5155 74.6729 44.0428 74.2001 44.4258 73.5886C44.8086 72.974 45 72.2388 45 71.3835V70.158H40.6816V71.7068H42.8975C42.8886 72.096 42.795 72.4353 42.6162 72.7244C42.4315 73.0283 42.163 73.2645 41.8105 73.4324C41.4613 73.5971 41.0395 73.6794 40.5459 73.6794C40.0018 73.6794 39.5296 73.5555 39.1299 73.3083C38.7303 73.0581 38.4205 72.6956 38.2021 72.2205C37.9839 71.7454 37.8751 71.1686 37.875 70.491C37.875 69.8129 37.9863 69.2382 38.208 68.7693C38.4297 68.2975 38.7386 67.9382 39.1348 67.6912C39.5344 67.4441 39.9981 67.3201 40.5254 67.3201C40.8072 67.3201 41.0643 67.3533 41.2959 67.4197C41.531 67.4862 41.7405 67.584 41.9219 67.7107C42.1063 67.8342 42.2631 67.9864 42.3906 68.1667C42.518 68.344 42.617 68.5481 42.6875 68.7791H44.9043C44.8338 68.2978 44.6741 67.8577 44.4258 67.4587C44.1772 67.0564 43.8568 66.7082 43.4639 66.4167C43.0743 66.1253 42.6268 65.9013 42.123 65.7429C41.6192 65.5813 41.0747 65.4998 40.4902 65.4998ZM26.6572 65.6326V75.366H28.8389V72.2107H30.6729C31.4654 72.2107 32.1407 72.0722 32.6982 71.7966C33.2591 71.521 33.6878 71.1365 33.9834 70.6423C34.279 70.1481 34.4267 69.5776 34.4268 68.9314C34.4267 68.2853 34.2813 67.7146 33.9893 67.2205C33.7004 66.723 33.2794 66.3352 32.7285 66.0564C32.1777 65.7745 31.5111 65.6326 30.7285 65.6326H26.6572ZM30.3096 67.3152C30.7328 67.3152 31.0829 67.384 31.3584 67.5203C31.6335 67.6532 31.8383 67.8411 31.9727 68.0847C32.1104 68.3255 32.1797 68.6083 32.1797 68.9314C32.1796 69.2513 32.1103 69.5349 31.9727 69.782C31.8383 70.0258 31.6337 70.2178 31.3584 70.3572C31.0864 70.4933 30.74 70.5612 30.3203 70.5613H28.8389V67.3152H30.3096Z" fill="white"/>
<g filter="url(#filter0_d_18_922)">
<path d="M63.9995 19.2047H47.6267C46.4621 19.2047 45.5181 18.2606 45.5181 17.096V2.22925L63.9995 19.2047Z" fill="#E4E7EC"/>
</g>
<defs>
<filter id="filter0_d_18_922" x="39.1921" y="0.120604" width="26.916" height="25.4099" filterUnits="userSpaceOnUse" color-interpolation-filters="sRGB">
<feFlood flood-opacity="0" result="BackgroundImageFix"/>
<feColorMatrix in="SourceAlpha" type="matrix" values="0 0 0 0 0 0 0 0 0 0 0 0 0 0 0 0 0 0 127 0" result="hardAlpha"/>
<feOffset dx="-2.10864" dy="2.10864"/>
<feGaussianBlur stdDeviation="2.10864"/>
<feComposite in2="hardAlpha" operator="out"/>
<feColorMatrix type="matrix" values="0 0 0 0 0 0 0 0 0 0 0 0 0 0 0 0 0 0 0.2 0"/>
<feBlend mode="normal" in2="BackgroundImageFix" result="effect1_dropShadow_18_922"/>
<feBlend mode="normal" in="SourceGraphic" in2="effect1_dropShadow_18_922" result="shape"/>
</filter>
</defs>
</svg>
