<svg viewBox="0 0 67 88" fill="none" xmlns="http://www.w3.org/2000/svg">
<path d="M64 19.1131V79.0369C64 83.6952 60.2237 87.4715 55.5654 87.4715H8.43457C3.77629 87.4715 0 83.6952 0 79.0369V10.5723C0 5.914 3.77629 2.1377 8.43458 2.1377H45.5185L64 19.1131Z" fill="#FEA600"/>
<path d="M23.9513 46.2917H20.7013V43.1891H23.9513V46.2917Z" fill="white"/>
<path d="M41.3753 46.2917H38.1253V43.1891H41.3753V46.2917Z" fill="white"/>
<path d="M23.9513 42.1314H20.7013V39.0288H23.9513V42.1314Z" fill="white"/>
<path d="M41.3753 42.1314H38.1253V39.0288H41.3753V42.1314Z" fill="white"/>
<path d="M27.4545 34.9256C27.4545 34.4072 28.0659 34.0941 28.5308 34.3744L34.2246 37.8078C34.6523 38.0657 34.6523 38.6522 34.2246 38.9101L28.5308 42.3435C28.0659 42.6238 27.4545 42.3107 27.4545 41.7923V34.9256Z" fill="white"/>
<path d="M23.9513 37.6891H20.7013V34.5865H23.9513V37.6891Z" fill="white"/>
<path d="M41.3753 37.6891H38.1253V34.5865H41.3753V37.6891Z" fill="white"/>
<path d="M23.9513 33.5288H20.7013V30.4263H23.9513V33.5288Z" fill="white"/>
<path d="M41.3753 33.5288H38.1253V30.4263H41.3753V33.5288Z" fill="white"/>
<path fill-rule="evenodd" clip-rule="evenodd" d="M44 49.5H18V27.5H44V49.5ZM19.5195 48.0192H42.4805V28.9808H19.5195V48.0192Z" fill="white"/>
<path d="M52 60.5C54.7614 60.5 57 62.7386 57 65.5V73.5C57 76.2614 54.7614 78.5 52 78.5H12C9.23858 78.5 7 76.2614 7 73.5V65.5C7 62.7386 9.23858 60.5 12 60.5H52ZM18 64.5V74.5H19.957V67.9668H20.0361L22.5059 74.4512H23.8389L26.3096 67.9912H26.3887V74.5H28.3467V64.5H25.8574L23.2295 71.2188H23.1172L20.4883 64.5H18ZM30.0088 64.5V74.5H32.0264V71.2578H33.7236C34.4566 71.2578 35.081 71.1161 35.5967 70.833C36.1155 70.5498 36.5118 70.1542 36.7852 69.6465C37.0585 69.1388 37.1953 68.5526 37.1953 67.8887C37.1953 67.2248 37.0603 66.6386 36.79 66.1309C36.5229 65.6199 36.1344 65.221 35.625 64.9346C35.1155 64.6449 34.4982 64.5 33.7744 64.5H30.0088ZM42.29 64.5L38.3057 71.0771V72.7422H42.8867V74.5H44.8164V72.7422H46V71.0479H44.8164V64.5H42.29ZM42.9238 66.8047V71.0479H40.3369V70.9697L42.8496 66.8047H42.9238ZM33.3877 66.2285C33.779 66.2286 34.1027 66.2985 34.3574 66.4385C34.6119 66.5751 34.8015 66.7692 34.9258 67.0195C35.053 67.2667 35.1171 67.557 35.1172 67.8887C35.1171 68.2173 35.0531 68.5089 34.9258 68.7627C34.8015 69.0132 34.612 69.2103 34.3574 69.3535C34.1059 69.4934 33.7856 69.5634 33.3975 69.5635H32.0264V66.2285H33.3877Z" fill="white"/>
<g filter="url(#filter0_d_18_774)">
<path d="M63.9995 19.1131H47.6267C46.4621 19.1131 45.5181 18.1691 45.5181 17.0045V2.1377L63.9995 19.1131Z" fill="#E4E7EC"/>
</g>
<defs>
<filter id="filter0_d_18_774" x="39.1921" y="0.0290513" width="26.916" height="25.41" filterUnits="userSpaceOnUse" color-interpolation-filters="sRGB">
<feFlood flood-opacity="0" result="BackgroundImageFix"/>
<feColorMatrix in="SourceAlpha" type="matrix" values="0 0 0 0 0 0 0 0 0 0 0 0 0 0 0 0 0 0 127 0" result="hardAlpha"/>
<feOffset dx="-2.10864" dy="2.10864"/>
<feGaussianBlur stdDeviation="2.10864"/>
<feComposite in2="hardAlpha" operator="out"/>
<feColorMatrix type="matrix" values="0 0 0 0 0 0 0 0 0 0 0 0 0 0 0 0 0 0 0.2 0"/>
<feBlend mode="normal" in2="BackgroundImageFix" result="effect1_dropShadow_18_774"/>
<feBlend mode="normal" in="SourceGraphic" in2="effect1_dropShadow_18_774" result="shape"/>
</filter>
</defs>
</svg>
