<svg viewBox="0 0 67 88" fill="none" xmlns="http://www.w3.org/2000/svg">
<path d="M64 19.4452V79.369C64 84.0273 60.2237 87.8035 55.5654 87.8035H8.43457C3.77629 87.8035 0 84.0273 0 79.369V10.9043C0 6.24603 3.77629 2.46973 8.43458 2.46973H45.5185L64 19.4452Z" fill="#9B00CF"/>
<path fill-rule="evenodd" clip-rule="evenodd" d="M24.3391 33.1184C22.9303 32.1829 22 30.5697 22 28.7366C22 25.8445 24.3157 23.5 27.1722 23.5H35.8275C38.6841 23.5 40.9997 25.8445 40.9997 28.7366C40.9997 30.5697 40.0694 32.1827 38.6608 33.1183C40.0696 34.0538 41 35.667 41 37.5002C41 40.3923 38.6843 42.7368 35.8278 42.7368C34.486 42.7368 33.2635 42.2195 32.3444 41.3711V46.2634C32.3444 49.1555 30.0287 51.5 27.1722 51.5C24.3157 51.5 22 49.1555 22 46.2634C22 44.4304 22.9302 42.8174 24.3387 41.8818C22.9302 40.9462 22 39.3332 22 37.5002C22 35.6671 22.9303 34.0539 24.3391 33.1184ZM30.6555 33.9735V41.0268H27.1722C27.1648 41.0268 27.1574 41.0269 27.1501 41.0269C25.2364 41.0148 23.6888 39.4405 23.6888 37.5002C23.6888 35.5525 25.2484 33.9735 27.1722 33.9735H30.6555ZM27.1722 42.7368C27.1648 42.7368 27.1574 42.7368 27.1501 42.7368C25.2364 42.7488 23.6888 44.3231 23.6888 46.2634C23.6888 48.2112 25.2484 49.7902 27.1722 49.7902C29.096 49.7902 30.6555 48.2112 30.6555 46.2634V42.7368H27.1722ZM30.6554 25.2099H27.1722C25.2484 25.2099 23.6888 26.7888 23.6888 28.7366C23.6888 30.6843 25.2484 32.2633 27.1722 32.2633H30.6554V25.2099ZM35.8275 32.2633H32.3444V25.2099H35.8275C37.7513 25.2099 39.3109 26.7888 39.3109 28.7366C39.3109 30.6843 37.7513 32.2633 35.8275 32.2633ZM32.3445 37.5002C32.3445 39.448 33.904 41.027 35.8278 41.027C37.7516 41.027 39.3112 39.448 39.3112 37.5002C39.3112 35.5525 37.7516 33.9735 35.8278 33.9735C33.904 33.9735 32.3445 35.5525 32.3445 37.5002Z" fill="white"/>
<path d="M52 61.6465C54.7614 61.6465 57 63.8851 57 66.6465V74.6465C57 77.4079 54.7614 79.6465 52 79.6465H12C9.23858 79.6465 7 77.4079 7 74.6465V66.6465C7 63.8851 9.23858 61.6465 12 61.6465H52ZM37.6787 65.5C37.0068 65.5001 36.3826 65.613 35.8066 65.8379C35.2307 66.0628 34.7256 66.3905 34.292 66.8213C33.8583 67.2522 33.521 67.7785 33.2793 68.3994C33.041 69.0172 32.9219 69.7209 32.9219 70.5098C32.9219 71.5362 33.1219 72.4232 33.5225 73.1709C33.9263 73.9154 34.4893 74.49 35.2109 74.8955C35.9326 75.2979 36.7702 75.5 37.7236 75.5C38.5778 75.5 39.3369 75.3354 39.999 75.0059C40.661 74.6732 41.1802 74.2003 41.5576 73.5889C41.935 72.9742 42.124 72.2391 42.124 71.3838V70.1582H37.8682V71.707H40.0518C40.043 72.096 39.9505 72.4347 39.7744 72.7236C39.5924 73.0277 39.3279 73.2637 38.9805 73.4316C38.6361 73.5964 38.2201 73.6797 37.7334 73.6797C37.1974 73.6796 36.7327 73.5555 36.3389 73.3086C35.9449 73.0583 35.639 72.695 35.4238 72.2197C35.2089 71.7446 35.1016 71.1678 35.1016 70.4902C35.1016 69.8123 35.2112 69.2384 35.4297 68.7695C35.6482 68.2976 35.9522 67.9375 36.3428 67.6904C36.7367 67.4433 37.1941 67.3203 37.7139 67.3203C37.9918 67.3203 38.2453 67.3534 38.4736 67.4199C38.7053 67.4865 38.9111 67.5832 39.0898 67.71C39.2718 67.8335 39.426 67.9855 39.5518 68.166C39.6775 68.3434 39.7752 68.5481 39.8447 68.7793H42.0293C41.9598 68.2978 41.8025 67.8571 41.5576 67.458C41.3126 67.0557 40.9966 66.7084 40.6094 66.417C40.2254 66.1256 39.7846 65.9006 39.2881 65.7422C38.7916 65.5807 38.2546 65.5 37.6787 65.5ZM21 65.6328V75.3662H23.1504V71.3457H27.2871V69.6494H23.1504V67.3301H27.7344V65.6328H21ZM29.1807 65.6328V75.3662H31.3311V65.6328H29.1807Z" fill="white"/>
<g filter="url(#filter0_d_18_81)">
<path d="M63.9995 19.4452H47.6267C46.4621 19.4452 45.5181 18.5011 45.5181 17.3365V2.46973L63.9995 19.4452Z" fill="#E4E7EC"/>
</g>
<defs>
<filter id="filter0_d_18_81" x="39.1921" y="0.361083" width="26.916" height="25.4099" filterUnits="userSpaceOnUse" color-interpolation-filters="sRGB">
<feFlood flood-opacity="0" result="BackgroundImageFix"/>
<feColorMatrix in="SourceAlpha" type="matrix" values="0 0 0 0 0 0 0 0 0 0 0 0 0 0 0 0 0 0 127 0" result="hardAlpha"/>
<feOffset dx="-2.10864" dy="2.10864"/>
<feGaussianBlur stdDeviation="2.10864"/>
<feComposite in2="hardAlpha" operator="out"/>
<feColorMatrix type="matrix" values="0 0 0 0 0 0 0 0 0 0 0 0 0 0 0 0 0 0 0.2 0"/>
<feBlend mode="normal" in2="BackgroundImageFix" result="effect1_dropShadow_18_81"/>
<feBlend mode="normal" in="SourceGraphic" in2="effect1_dropShadow_18_81" result="shape"/>
</filter>
</defs>
</svg>
