<svg height="89" viewBox="0 0 67 89" fill="none" xmlns="http://www.w3.org/2000/svg">
<path d="M64 19.8021V79.7259C64 84.3842 60.2237 88.1605 55.5654 88.1605H8.43457C3.77629 88.1605 0 84.3842 0 79.7259V11.2612C0 6.60296 3.77629 2.82666 8.43458 2.82666H45.5185L64 19.8021Z" fill="#9B00CF"/>
<path fill-rule="evenodd" clip-rule="evenodd" d="M33.6154 46H33.1538L34.0769 50.5L33.1538 52H30.3846L29.4615 50.5L30.3846 46H29.9231L29 42.5H35L33.6154 46ZM31.7692 49.5C31.3869 49.5 31.0769 49.8358 31.0769 50.25C31.0769 50.6642 31.3869 51 31.7692 51C32.1516 51 32.4615 50.6642 32.4615 50.25C32.4615 49.8358 32.1516 49.5 31.7692 49.5Z" fill="white"/>
<path d="M32.2308 25C32.4857 25 32.6923 25.2239 32.6923 25.5V26.5C32.6923 26.7761 32.4857 27 32.2308 27H34.5385C34.7934 27 35 27.2239 35 27.5V28.5C35 28.7761 34.7934 29 34.5385 29H32.2308C32.4857 29 32.6923 29.2239 32.6923 29.5V30.5C32.6923 30.7761 32.4857 31 32.2308 31H34.5385C34.7934 31 35 31.2239 35 31.5V32.5C35 32.7761 34.7934 33 34.5385 33H32.2308C32.4857 33 32.6923 33.2239 32.6923 33.5V34.5C32.6923 34.7761 32.4857 35 32.2308 35H34.5385C34.7934 35 35 35.2239 35 35.5V36.5C35 36.7761 34.7934 37 34.5385 37H32.2308C32.4857 37 32.6923 37.2239 32.6923 37.5V38.5C32.6923 38.7761 32.4857 39 32.2308 39H34.5385C34.7934 39 35 39.2239 35 39.5V40.5C35 40.7761 34.7934 41 34.5385 41H31.7692C31.5143 41 31.3077 40.7761 31.3077 40.5V39.5C31.3077 39.2239 31.5143 39 31.7692 39H29.4615C29.2066 39 29 38.7761 29 38.5V37.5C29 37.2239 29.2066 37 29.4615 37H31.7692C31.5143 37 31.3077 36.7761 31.3077 36.5V35.5C31.3077 35.2239 31.5143 35 31.7692 35H29.4615C29.2066 35 29 34.7761 29 34.5V33.5C29 33.2239 29.2066 33 29.4615 33H31.7692C31.5143 33 31.3077 32.7761 31.3077 32.5V31.5C31.3077 31.2239 31.5143 31 31.7692 31H29.4615C29.2066 31 29 30.7761 29 30.5V29.5C29 29.2239 29.2066 29 29.4615 29H31.7692C31.5143 29 31.3077 28.7761 31.3077 28.5V27.5C31.3077 27.2239 31.5143 27 31.7692 27H29.4615C29.2066 27 29 26.7761 29 26.5V25.5C29 25.2239 29.2066 25 29.4615 25H32.2308Z" fill="white"/>
<path d="M52 62.0005C54.7614 62.0005 57 64.2391 57 67.0005V74.9995C57 77.7609 54.7614 80.0005 52 80.0005H12C9.23858 80.0005 7 77.7609 7 74.9995V67.0005C7 64.2391 9.23858 62.0005 12 62.0005H52ZM22 66.0005V67.7437H26.8379L22.0098 74.7456V76.0005H29.417V74.2563H24.5742L29.4072 67.2544V66.0005H22ZM30.9863 66.0005V76.0005H33.0322V66.0005H30.9863ZM34.7148 66.0005V76.0005H36.7607V72.7583H38.4805C39.2237 72.7583 39.8571 72.6157 40.3799 72.3325C40.9055 72.0494 41.3069 71.6544 41.584 71.147C41.8611 70.6393 41.9999 70.053 42 69.3892C42 68.7251 41.8629 68.1382 41.5889 67.6304C41.3181 67.1196 40.9244 66.7214 40.4082 66.4351C39.8917 66.1454 39.266 66.0005 38.5322 66.0005H34.7148ZM38.1396 67.728C38.5365 67.728 38.8648 67.799 39.123 67.939C39.381 68.0756 39.5733 68.2687 39.6992 68.519C39.8283 68.7664 39.8936 69.0571 39.8936 69.3892C39.8935 69.7176 39.8282 70.0085 39.6992 70.2622C39.5733 70.5128 39.3812 70.7098 39.123 70.853C38.8681 70.9929 38.5438 71.0639 38.1504 71.064H36.7607V67.728H38.1396Z" fill="white"/>
<g filter="url(#filter0_d_18_326)">
<path d="M63.9995 19.8021H47.6267C46.4621 19.8021 45.5181 18.858 45.5181 17.6934V2.82666L63.9995 19.8021Z" fill="#E4E7EC"/>
</g>
<defs>
<filter id="filter0_d_18_326" x="39.1921" y="0.718016" width="26.916" height="25.41" filterUnits="userSpaceOnUse" color-interpolation-filters="sRGB">
<feFlood flood-opacity="0" result="BackgroundImageFix"/>
<feColorMatrix in="SourceAlpha" type="matrix" values="0 0 0 0 0 0 0 0 0 0 0 0 0 0 0 0 0 0 127 0" result="hardAlpha"/>
<feOffset dx="-2.10864" dy="2.10864"/>
<feGaussianBlur stdDeviation="2.10864"/>
<feComposite in2="hardAlpha" operator="out"/>
<feColorMatrix type="matrix" values="0 0 0 0 0 0 0 0 0 0 0 0 0 0 0 0 0 0 0.2 0"/>
<feBlend mode="normal" in2="BackgroundImageFix" result="effect1_dropShadow_18_326"/>
<feBlend mode="normal" in="SourceGraphic" in2="effect1_dropShadow_18_326" result="shape"/>
</filter>
</defs>
</svg>
