<svg height="89" viewBox="0 0 67 89" fill="none" xmlns="http://www.w3.org/2000/svg">
<path d="M64 19.9852V79.909C64 84.5673 60.2237 88.3436 55.5654 88.3436H8.43457C3.77629 88.3436 0 84.5673 0 79.909V11.4444C0 6.78607 3.77629 3.00977 8.43458 3.00977H45.5185L64 19.9852Z" fill="#008201"/>
<path d="M46 31C47.6569 31 49 32.3431 49 34V45C49 46.6569 47.6569 48 46 48H18C16.3431 48 15 46.6569 15 45V34C15 32.3431 16.3431 31 18 31H46ZM17 43V46H23V43H17ZM25 43V46H31V43H25ZM33 43V46H39V43H33ZM41 43V46H47V43H41ZM17 38V41H23V38H17ZM25 38V41H31V38H25ZM33 38V41H39V38H33ZM41 38V41H47V38H41ZM17 33V36H23V33H17ZM25 33V36H31V33H25ZM33 33V36H39V33H33ZM41 33V36H47V33H41Z" fill="white"/>
<path d="M52 62C54.7614 62 57 64.2386 57 67V75C57 77.7614 54.7614 80 52 80H12C9.23858 80 7 77.7614 7 75V67C7 64.2386 9.23858 62 12 62H52ZM36.0352 66C35.2994 66 34.6416 66.1241 34.0635 66.3711C33.4855 66.6181 33.0299 66.9613 32.6982 67.4014C32.3699 67.8415 32.2067 68.3564 32.21 68.9453C32.2067 69.6642 32.4526 70.2358 32.9453 70.6602C33.438 71.0844 34.1094 71.3972 34.96 71.5967L36.0586 71.8623C36.4265 71.9478 36.7383 72.0429 36.9912 72.1475C37.247 72.2519 37.441 72.3787 37.5723 72.5273C37.7068 72.6761 37.7734 72.8607 37.7734 73.0791C37.7733 73.3129 37.7001 73.52 37.5527 73.7002C37.4049 73.8807 37.1951 74.0227 36.9258 74.124C36.6599 74.2252 36.3463 74.2754 35.9854 74.2754C35.6177 74.2754 35.2873 74.2218 34.9951 74.1143C34.706 74.0034 34.4739 73.8394 34.2998 73.624C34.1293 73.4057 34.0328 73.1334 34.0098 72.8076H31.9443C31.9608 73.5074 32.1367 74.0953 32.4717 74.5703C32.81 75.0421 33.2798 75.399 33.8809 75.6396C34.4853 75.8803 35.1952 76 36.0098 76C36.831 76 37.5328 75.8811 38.1143 75.6436C38.6987 75.4029 39.1454 75.0656 39.4541 74.6318C39.7661 74.1948 39.9245 73.6784 39.9277 73.083C39.9244 72.6778 39.8463 72.3183 39.6953 72.0049C39.5475 71.6916 39.3395 71.4186 39.0703 71.1875C38.8011 70.9564 38.482 70.7618 38.1143 70.6035C37.7465 70.4452 37.3423 70.3186 36.9023 70.2236L35.9951 70.0146C35.7752 69.9672 35.5677 69.9092 35.374 69.8428C35.1804 69.7731 35.009 69.6924 34.8613 69.6006C34.7138 69.5057 34.597 69.3933 34.5117 69.2637C34.4297 69.1339 34.3919 68.9816 34.3984 68.8076C34.3985 68.5987 34.4612 68.4117 34.5859 68.2471C34.714 68.0826 34.8982 67.9541 35.1377 67.8623C35.3774 67.7674 35.6716 67.7197 36.0195 67.7197C36.532 67.7197 36.9384 67.8259 37.2373 68.0381C37.536 68.2503 37.7047 68.5486 37.7441 68.9316H39.7891C39.7792 68.3521 39.6187 67.8416 39.3066 67.4014C38.9947 66.9613 38.5575 66.6181 37.9961 66.3711C37.4378 66.1241 36.7838 66.0001 36.0352 66ZM14.0596 66.1328L17.1592 70.998L14 75.8623H16.4443L18.5137 72.542H18.5918L20.6611 75.8623H23.1162L19.9678 70.998L23.0469 66.1328H20.6377L18.5918 69.4492H18.5137L16.4785 66.1328H14.0596ZM24.3975 66.1328V75.8623H30.8564V74.166H26.5303V66.1328H24.3975ZM40.9434 66.1328L44.043 70.998L40.8838 75.8623H43.3291L45.3984 72.542H45.4766L47.5459 75.8623H50L46.8516 70.998L49.9307 66.1328H47.5215L45.4766 69.4492H45.3984L43.3623 66.1328H40.9434Z" fill="white"/>
<g filter="url(#filter0_d_18_284)">
<path d="M63.9995 19.9852H47.6267C46.4621 19.9852 45.5181 19.0411 45.5181 17.8766V3.00977L63.9995 19.9852Z" fill="#E4E7EC"/>
</g>
<defs>
<filter id="filter0_d_18_284" x="39.1921" y="0.901122" width="26.916" height="25.41" filterUnits="userSpaceOnUse" color-interpolation-filters="sRGB">
<feFlood flood-opacity="0" result="BackgroundImageFix"/>
<feColorMatrix in="SourceAlpha" type="matrix" values="0 0 0 0 0 0 0 0 0 0 0 0 0 0 0 0 0 0 127 0" result="hardAlpha"/>
<feOffset dx="-2.10864" dy="2.10864"/>
<feGaussianBlur stdDeviation="2.10864"/>
<feComposite in2="hardAlpha" operator="out"/>
<feColorMatrix type="matrix" values="0 0 0 0 0 0 0 0 0 0 0 0 0 0 0 0 0 0 0.2 0"/>
<feBlend mode="normal" in2="BackgroundImageFix" result="effect1_dropShadow_18_284"/>
<feBlend mode="normal" in="SourceGraphic" in2="effect1_dropShadow_18_284" result="shape"/>
</filter>
</defs>
</svg>
