<svg viewBox="0 0 67 88" fill="none" xmlns="http://www.w3.org/2000/svg">
<path d="M64 19.9754V79.8992C64 84.5575 60.2237 88.3338 55.5654 88.3338H8.43457C3.77629 88.3338 0 84.5575 0 79.8992V11.4346C0 6.7763 3.77629 3 8.43458 3H45.5185L64 19.9754Z" fill="#FF1200"/>
<path d="M52 62.5C54.7614 62.5 57 64.7386 57 67.5V75.5C57 78.2614 54.7614 80.5 52 80.5H12C9.23858 80.5 7 78.2614 7 75.5V67.5C7 64.7386 9.23858 62.5 12 62.5H52ZM19 66.5V76.5H21.1533V73.2578H22.9639C23.7462 73.2578 24.4126 73.1162 24.9629 72.833C25.5164 72.5498 25.9387 72.1542 26.2305 71.6465C26.5222 71.1388 26.6689 70.5526 26.6689 69.8887C26.6689 69.2248 26.5247 68.6385 26.2363 68.1309C25.9512 67.6198 25.5359 67.221 24.9922 66.9346C24.4486 66.645 23.7908 66.5 23.0186 66.5H19ZM28.0674 66.5V76.5H31.6777C32.7119 76.5 33.6002 76.2996 34.3428 75.8994C35.0887 75.4991 35.6617 74.9244 36.0596 74.1758C36.4606 73.4272 36.6611 72.5316 36.6611 71.4902C36.6611 70.4521 36.4606 69.5597 36.0596 68.8145C35.6618 68.0693 35.0926 67.4977 34.3535 67.1006C33.6142 66.7003 32.7314 66.5 31.707 66.5H28.0674ZM38.2559 66.5V76.5H40.4092V72.3691H44.5527V70.626H40.4092V68.2432H45V66.5H38.2559ZM31.5938 68.3115C32.2301 68.3116 32.766 68.4223 33.2002 68.6436C33.6342 68.8649 33.96 69.2103 34.1787 69.6787C34.4008 70.1474 34.5127 70.7515 34.5127 71.4902C34.5127 72.2354 34.4008 72.8445 34.1787 73.3164C33.9599 73.7849 33.6318 74.1319 33.1943 74.3564C32.7601 74.5777 32.2243 74.6885 31.5879 74.6885H30.2207V68.3115H31.5938ZM22.6055 68.2285C23.0229 68.2285 23.3679 68.2987 23.6396 68.4385C23.9113 68.5751 24.1135 68.7691 24.2461 69.0195C24.3819 69.2668 24.4511 69.5569 24.4512 69.8887C24.4511 70.2173 24.382 70.5089 24.2461 70.7627C24.1135 71.0132 23.9114 71.2103 23.6396 71.3535C23.3713 71.4933 23.0301 71.5634 22.6162 71.5635H21.1533V68.2285H22.6055Z" fill="white"/>
<g filter="url(#filter0_d_18_39)">
<path d="M63.9995 19.9754H47.6267C46.4621 19.9754 45.5181 19.0314 45.5181 17.8668V3L63.9995 19.9754Z" fill="#E4E7EC"/>
</g>
<path fill-rule="evenodd" clip-rule="evenodd" d="M29.9888 21.9095C34.481 20.5066 31.814 31.599 31.814 31.599C34.2011 38.3382 37.8521 39.0404 37.8521 39.0404C44.0295 38.3384 46.8386 38.9003 46.979 41.0062C47.3996 44.5161 41.5022 43.6738 37.0093 41.0062C36.9904 41.0093 30.1238 42.1314 26.478 43.5336C25.4949 43.9548 22.2651 52.0983 18.4741 50.555C15.385 49.4317 19.0354 45.4995 24.3716 42.972C26.8943 39.0477 29.5569 32.3253 29.5669 32.3002C29.5415 32.2225 26.4929 22.8884 29.9888 21.9095ZM23.6733 44.4017C21.1774 45.8735 18.4883 49.2238 19.2866 49.4125C19.6624 49.491 22.8882 46.0008 23.6733 44.4017ZM45.979 41.2299C45.9228 40.7413 42.09 40.0136 40.5679 40.4613C42.5629 42.0462 46.0984 42.2857 45.979 41.2299ZM30.6909 34.5472C29.992 36.5041 27.2069 41.8001 27.1812 41.849C30.5511 40.4451 35.0444 39.7425 35.0444 39.7425C35.0444 39.7425 31.6741 36.7939 30.6909 34.5472ZM30.5513 22.8929C30.0317 23.0661 30.1297 27.3864 30.9722 28.931C32.2355 26.4042 31.6739 22.5208 30.5513 22.8929Z" fill="white"/>
<defs>
<filter id="filter0_d_18_39" x="39.1921" y="0.891356" width="26.916" height="25.4099" filterUnits="userSpaceOnUse" color-interpolation-filters="sRGB">
<feFlood flood-opacity="0" result="BackgroundImageFix"/>
<feColorMatrix in="SourceAlpha" type="matrix" values="0 0 0 0 0 0 0 0 0 0 0 0 0 0 0 0 0 0 127 0" result="hardAlpha"/>
<feOffset dx="-2.10864" dy="2.10864"/>
<feGaussianBlur stdDeviation="2.10864"/>
<feComposite in2="hardAlpha" operator="out"/>
<feColorMatrix type="matrix" values="0 0 0 0 0 0 0 0 0 0 0 0 0 0 0 0 0 0 0.2 0"/>
<feBlend mode="normal" in2="BackgroundImageFix" result="effect1_dropShadow_18_39"/>
<feBlend mode="normal" in="SourceGraphic" in2="effect1_dropShadow_18_39" result="shape"/>
</filter>
</defs>
</svg>
