<svg viewBox="0 0 67 88" fill="none" xmlns="http://www.w3.org/2000/svg">
<path d="M64 19.2047V79.1285C64 83.7868 60.2237 87.5631 55.5654 87.5631H8.43457C3.77629 87.5631 0 83.7868 0 79.1285V10.6638C0 6.00555 3.77629 2.22925 8.43458 2.22925H45.5185L64 19.2047Z" fill="#155EEF"/>
<path d="M29.6053 47.1667C30.2593 47.1667 30.7895 47.689 30.7895 48.3333C30.7895 48.9777 30.2593 49.5 29.6053 49.5H16.1842C15.5302 49.5 15 48.9777 15 48.3333C15 47.689 15.5302 47.1667 16.1842 47.1667H29.6053Z" fill="white"/>
<path d="M47.8158 40.9444C48.4698 40.9444 49 41.4668 49 42.1111C49 42.7554 48.4698 43.2778 47.8158 43.2778H16.1842C15.5302 43.2778 15 42.7554 15 42.1111C15 41.4668 15.5302 40.9444 16.1842 40.9444H47.8158Z" fill="white"/>
<path d="M47.8158 34.7222C48.4698 34.7222 49 35.2446 49 35.8889C49 36.5332 48.4698 37.0556 47.8158 37.0556H16.1842C15.5302 37.0556 15 36.5332 15 35.8889C15 35.2446 15.5302 34.7222 16.1842 34.7222H47.8158Z" fill="white"/>
<path d="M47.8158 28.5C48.4698 28.5 49 29.0223 49 29.6667C49 30.311 48.4698 30.8333 47.8158 30.8333H16.1842C15.5302 30.8333 15 30.311 15 29.6667C15 29.0223 15.5302 28.5 16.1842 28.5H47.8158Z" fill="white"/>
<path d="M52 61.4998C54.7613 61.4998 56.9999 63.7384 57 66.4998V74.4998C57 77.2612 54.7614 79.4998 52 79.4998H12C9.23858 79.4998 7 77.2612 7 74.4998V66.4998C7.00013 63.7384 9.23866 61.4998 12 61.4998H52ZM31.7344 65.4998C30.8934 65.4998 30.1382 65.6968 29.4697 66.0896C28.8014 66.4793 28.2729 67.0464 27.8848 67.7908C27.4966 68.5353 27.3028 69.4385 27.3027 70.4998C27.3028 71.5579 27.4966 72.4593 27.8848 73.2039C28.2729 73.9484 28.8012 74.517 29.4697 74.9099C30.1383 75.3028 30.8933 75.4997 31.7344 75.4998C32.569 75.4997 33.3209 75.3053 33.9893 74.9158C34.6608 74.5229 35.1909 73.9532 35.5791 73.2087C35.9703 72.4642 36.167 71.561 36.167 70.4998C36.167 69.4384 35.9704 68.5353 35.5791 67.7908C35.1909 67.0463 34.6608 66.4793 33.9893 66.0896C33.3208 65.6969 32.5691 65.4998 31.7344 65.4998ZM41.8916 65.4998C41.0598 65.4998 40.311 65.6968 39.6455 66.0896C38.98 66.4793 38.4527 67.0462 38.0645 67.7908C37.6763 68.5353 37.4825 69.4385 37.4824 70.4998C37.4824 71.5579 37.6737 72.4593 38.0557 73.2039C38.4407 73.9484 38.9646 74.517 39.627 74.9099C40.2924 75.3027 41.0475 75.4998 41.8916 75.4998C42.4983 75.4997 43.042 75.4063 43.5225 75.2195C44.0062 75.0294 44.4223 74.7722 44.7705 74.449C45.1216 74.1227 45.4001 73.7533 45.6064 73.3416C45.8158 72.9266 45.9476 72.4961 46 72.0496L43.9756 72.0398C43.9294 72.2994 43.8456 72.5305 43.7256 72.7332C43.6085 72.9359 43.4609 73.1091 43.2822 73.2517C43.1037 73.391 42.8988 73.4972 42.668 73.5701C42.4401 73.6429 42.1918 73.6794 41.9238 73.6794C41.4463 73.6794 41.0257 73.5589 40.6621 73.3181C40.2986 73.0773 40.0149 72.7208 39.8115 72.2488C39.6113 71.7768 39.5108 71.1935 39.5107 70.4998C39.5108 69.825 39.6113 69.2511 39.8115 68.7791C40.0117 68.304 40.2938 67.9431 40.6572 67.696C41.0207 67.4458 41.4477 67.3201 41.9375 67.3201C42.2084 67.3201 42.4595 67.3601 42.6904 67.4392C42.9244 67.5184 43.131 67.6323 43.3096 67.781C43.4882 67.9299 43.635 68.1108 43.749 68.323C43.863 68.5321 43.9386 68.7716 43.9756 69.0408H46C45.9353 68.4769 45.7867 67.976 45.5557 67.5388C45.3277 67.1018 45.0324 66.7323 44.6689 66.4314C44.3054 66.1273 43.8873 65.8955 43.416 65.7371C42.9479 65.5788 42.4397 65.4998 41.8916 65.4998ZM18 65.6326V75.366H21.3555C22.3165 75.3659 23.142 75.1715 23.832 74.782C24.5251 74.3923 25.057 73.8328 25.4268 73.1042C25.7994 72.3756 25.9863 71.5037 25.9863 70.49C25.9863 69.4797 25.7993 68.6119 25.4268 67.8865C25.0571 67.161 24.5287 66.6041 23.8418 66.2175C23.1548 65.8279 22.3347 65.6326 21.3828 65.6326H18ZM31.7344 67.3201C32.218 67.3201 32.6406 67.4424 33.001 67.6863C33.3613 67.9302 33.6398 68.2886 33.8369 68.7605C34.0371 69.2325 34.1377 69.8124 34.1377 70.4998C34.1377 71.1871 34.0371 71.767 33.8369 72.239C33.6398 72.7108 33.3612 73.0693 33.001 73.3132C32.6406 73.5571 32.2179 73.6794 31.7344 73.6794C31.2507 73.6794 30.8282 73.5572 30.4678 73.3132C30.1074 73.0693 29.8272 72.711 29.627 72.239C29.4298 71.767 29.3311 71.1871 29.3311 70.4998C29.3311 69.8124 29.4298 69.2325 29.627 68.7605C29.8272 68.2885 30.1074 67.9302 30.4678 67.6863C30.8282 67.4423 31.2507 67.3201 31.7344 67.3201ZM21.2773 67.3962C21.8686 67.3963 22.3661 67.5041 22.7695 67.7195C23.173 67.9349 23.4764 68.2712 23.6797 68.7273C23.886 69.1834 23.9892 69.7711 23.9893 70.49C23.9892 71.2154 23.886 71.808 23.6797 72.2673C23.4764 72.7235 23.1713 73.0614 22.7646 73.28C22.3611 73.4954 21.8629 73.6033 21.2715 73.6033H20.001V67.3962H21.2773Z" fill="white"/>
<g filter="url(#filter0_d_18_53)">
<path d="M63.9995 19.2047H47.6267C46.4621 19.2047 45.5181 18.2606 45.5181 17.096V2.22925L63.9995 19.2047Z" fill="#E4E7EC"/>
</g>
<defs>
<filter id="filter0_d_18_53" x="39.1921" y="0.120604" width="26.916" height="25.4099" filterUnits="userSpaceOnUse" color-interpolation-filters="sRGB">
<feFlood flood-opacity="0" result="BackgroundImageFix"/>
<feColorMatrix in="SourceAlpha" type="matrix" values="0 0 0 0 0 0 0 0 0 0 0 0 0 0 0 0 0 0 127 0" result="hardAlpha"/>
<feOffset dx="-2.10864" dy="2.10864"/>
<feGaussianBlur stdDeviation="2.10864"/>
<feComposite in2="hardAlpha" operator="out"/>
<feColorMatrix type="matrix" values="0 0 0 0 0 0 0 0 0 0 0 0 0 0 0 0 0 0 0.2 0"/>
<feBlend mode="normal" in2="BackgroundImageFix" result="effect1_dropShadow_18_53"/>
<feBlend mode="normal" in="SourceGraphic" in2="effect1_dropShadow_18_53" result="shape"/>
</filter>
</defs>
</svg>
