<svg viewBox="0 0 67 88" fill="none" xmlns="http://www.w3.org/2000/svg">
<path d="M64 19.4452V79.369C64 84.0273 60.2237 87.8035 55.5654 87.8035H8.43457C3.77629 87.8035 0 84.0273 0 79.369V10.9043C0 6.24603 3.77629 2.46973 8.43458 2.46973H45.5185L64 19.4452Z" fill="#155EEF"/>
<path fill-rule="evenodd" clip-rule="evenodd" d="M32 31.8667C34.8309 31.8667 37.1255 34.1613 37.1255 36.9922C37.1255 39.8231 34.8309 42.1177 32 42.1177C29.1691 42.1177 26.8745 39.8231 26.8745 36.9922C26.8745 34.1613 29.1691 31.8667 32 31.8667ZM32 33.3404C29.983 33.3404 28.3482 34.9751 28.3482 36.9922C28.3482 39.0092 29.983 40.644 32 40.644C34.017 40.644 35.6518 39.0092 35.6518 36.9922C35.6518 34.9751 34.017 33.3404 32 33.3404Z" fill="white"/>
<path fill-rule="evenodd" clip-rule="evenodd" d="M34.9445 27.07C35.641 27.2764 36.3074 27.5534 36.9341 27.8939L40.1779 25.3711L43.6211 28.8142L41.0976 32.0581C41.4382 32.6848 41.715 33.3512 41.9215 34.0477L46 34.5572V39.4272L41.9215 39.9367C41.7151 40.6332 41.4381 41.2996 41.0976 41.9263L43.6211 45.1701L40.1772 48.6133L36.9341 46.0897C36.3074 46.4303 35.641 46.7073 34.9445 46.9137L34.435 50.9922H29.565L29.0555 46.9137C28.359 46.7072 27.6926 46.4304 27.0659 46.0897L23.8221 48.6133L20.3789 45.1701L22.9017 41.9263C22.5612 41.2996 22.2842 40.6332 22.0778 39.9367L18 39.4272V34.5572L22.0778 34.0477C22.2842 33.3512 22.5611 32.6848 22.9017 32.0581L20.3789 28.8142L23.8221 25.3711L27.0659 27.8939C27.6926 27.5533 28.359 27.2764 29.0555 27.07L29.565 22.9922H34.435L34.9445 27.07ZM30.3982 28.2091L29.4736 28.4832C28.8761 28.6603 28.3055 28.8972 27.7696 29.1884L26.922 29.649L23.9437 27.3326L22.3405 28.9359L24.6568 31.9142L24.1962 32.7618C23.905 33.2977 23.6682 33.8683 23.4911 34.4658L23.2169 35.3904L19.4737 35.8581V38.1255L23.2169 38.5932L23.4911 39.5179C23.6681 40.1155 23.9049 40.6864 24.1962 41.2226L24.6568 42.0695L22.3405 45.0478L23.9437 46.651L26.922 44.3347L27.7696 44.7952C28.2386 45.0501 28.7342 45.2633 29.2512 45.4313L29.4736 45.5011L30.3982 45.7746L30.8667 49.5185H33.1333L33.601 45.7746L34.5257 45.5011C35.1234 45.324 35.6942 45.0866 36.2304 44.7952L37.0773 44.3347L40.0549 46.651L41.6588 45.0478L39.3425 42.0695L39.803 41.2226C40.0944 40.6864 40.3318 40.1156 40.5089 39.5179L40.7824 38.5932L44.5263 38.1255V35.8581L40.7824 35.3904L40.5089 34.4658C40.3318 33.8681 40.0943 33.2977 39.803 32.7618L39.3425 31.9142L41.6588 28.9359L40.0556 27.3326L37.0773 29.649L36.2304 29.1884C35.6942 28.8971 35.1233 28.6603 34.5257 28.4832L33.601 28.2091L33.1333 24.4659H30.8667L30.3982 28.2091Z" fill="white"/>
<path d="M52 61.9922C54.7614 61.9922 57 64.2308 57 66.9922V74.9922C57 77.7536 54.7614 79.9922 52 79.9922H12C9.23858 79.9922 7 77.7536 7 74.9922V66.9922C7 64.2308 9.23858 61.9922 12 61.9922H52ZM20 65.5V75.5H26.7559V73.7568H22.1133V71.3691H26.3896V69.626H22.1133V67.2432H26.7373V65.5H20ZM28.0029 65.5L31.0732 70.5L27.9434 75.5H30.3652L32.415 72.0869H32.4932L34.543 75.5H36.9746L33.8555 70.5L36.9062 65.5H34.5195L32.4932 68.9082H32.415L30.3984 65.5H28.0029ZM38.2441 65.5V75.5H45V73.7568H40.3574V71.3691H44.6338V69.626H40.3574V67.2432H44.9805V65.5H38.2441Z" fill="white"/>
<g filter="url(#filter0_d_18_95)">
<path d="M63.9995 19.4452H47.6267C46.4621 19.4452 45.5181 18.5011 45.5181 17.3365V2.46973L63.9995 19.4452Z" fill="#E4E7EC"/>
</g>
<defs>
<filter id="filter0_d_18_95" x="39.1921" y="0.361083" width="26.916" height="25.4099" filterUnits="userSpaceOnUse" color-interpolation-filters="sRGB">
<feFlood flood-opacity="0" result="BackgroundImageFix"/>
<feColorMatrix in="SourceAlpha" type="matrix" values="0 0 0 0 0 0 0 0 0 0 0 0 0 0 0 0 0 0 127 0" result="hardAlpha"/>
<feOffset dx="-2.10864" dy="2.10864"/>
<feGaussianBlur stdDeviation="2.10864"/>
<feComposite in2="hardAlpha" operator="out"/>
<feColorMatrix type="matrix" values="0 0 0 0 0 0 0 0 0 0 0 0 0 0 0 0 0 0 0.2 0"/>
<feBlend mode="normal" in2="BackgroundImageFix" result="effect1_dropShadow_18_95"/>
<feBlend mode="normal" in="SourceGraphic" in2="effect1_dropShadow_18_95" result="shape"/>
</filter>
</defs>
</svg>
